<svg xmlns="http://www.w3.org/2000/svg" xmlns:xlink="http://www.w3.org/1999/xlink" viewBox="0 0 120 40"><path d="M 37.047 24.698 L 34.741 24.698 C 34.073 24.698 33.527 24.152 33.527 23.484 L 33.527 8.829 L 28.946 8.829 C 26.609 8.829 24.698 10.741 24.698 13.077 L 24.698 25.76 C 24.698 28.096 26.609 30.008 28.946 30.008 L 45.876 30.008 L 45.876 0 L 37.047 0 Z M 16.93 8.829 L 0.303 8.829 L 0.303 14.109 L 11.135 14.109 C 11.803 14.109 12.349 14.655 12.349 15.322 L 12.349 24.698 L 10.043 24.698 C 9.375 24.698 8.829 24.152 8.829 23.484 L 8.829 16.748 L 4.248 16.748 C 1.912 16.748 0 18.66 0 20.996 L 0 25.73 C 0 28.066 1.912 29.977 4.248 29.977 L 21.178 29.977 L 21.178 13.047 C 21.178 10.741 19.267 8.829 16.93 8.829 Z M 59.469 24.698 L 61.775 24.698 L 61.775 8.829 L 70.604 8.829 L 70.604 34.589 C 70.604 36.926 68.693 38.837 66.357 38.837 L 49.73 38.837 L 49.73 32.647 L 61.775 32.647 L 61.775 30.008 L 53.674 30.008 C 51.338 30.008 49.426 28.096 49.426 25.76 L 49.426 8.829 L 58.256 8.829 L 58.256 23.484 C 58.256 24.152 58.802 24.698 59.469 24.698 Z M 91.054 8.829 L 74.124 8.829 L 74.124 25.76 C 74.124 28.096 76.036 30.008 78.372 30.008 L 94.999 30.008 L 94.999 24.728 L 84.167 24.728 C 83.5 24.728 82.953 24.182 82.953 23.515 L 82.953 14.109 L 85.259 14.109 C 85.927 14.109 86.473 14.655 86.473 15.322 L 86.473 22.058 L 91.054 22.058 C 93.391 22.058 95.302 20.147 95.302 17.81 L 95.302 13.077 C 95.302 10.741 93.391 8.829 91.054 8.829 Z M 98.822 8.829 L 115.752 8.829 C 118.119 8.829 120 10.741 120 13.047 L 120 29.977 L 111.171 29.977 L 111.171 15.322 C 111.171 14.655 110.625 14.109 109.957 14.109 L 107.651 14.109 L 107.651 30.008 L 98.822 30.008 Z" fill="#717680"></path></svg>