<svg xmlns="http://www.w3.org/2000/svg" width="168" height="40" viewBox="0 0 168 40" fill="none">
<g clip-path="url(#svg-596102841_5395_clip0_23_5642)">
<path d="M0.168945 13.1986H7.99199V19.6754C9.52787 19.0932 11.1136 18.8212 12.7643 18.8212C18.9079 18.8212 23.3623 23.3197 23.3623 29.4882C23.3623 34.1418 20.1756 39.6495 12.9175 39.6495H0.168945V13.1986ZM7.99007 32.8644C9.02613 33.0578 10.179 33.1364 10.9469 33.1364C13.7506 33.1364 15.5929 31.6235 15.5929 29.2584C15.5929 26.9315 13.7889 25.3401 11.1767 25.3401C10.2173 25.3401 9.06443 25.4569 7.98816 25.8055V32.8644H7.99007Z" fill="#717680"/>
<path d="M36.5151 18.8232C45.154 18.8232 48.4575 24.4477 48.4575 29.4116C48.4575 34.8408 44.6561 40 36.5917 40C27.9528 40 24.5728 34.4157 24.5728 29.4116C24.5728 24.1375 28.1424 18.8232 36.5151 18.8232ZM36.5151 33.3681C38.9568 33.3681 40.6382 31.7384 40.6382 29.4116C40.6382 27.0848 38.9568 25.4551 36.5151 25.4551C34.0734 25.4551 32.392 27.0848 32.392 29.4116C32.392 31.7403 34.0734 33.3681 36.5151 33.3681Z" fill="#717680"/>
<path d="M50.0432 13.1986H57.8548V39.6514H50.0432V13.1986Z" fill="#717680"/>
<path d="M68.0827 35.2296C68.0827 37.8666 66.0413 40 63.4693 40C60.8974 40 58.8176 37.8666 58.8176 35.2296C58.8176 32.5925 60.8974 30.4974 63.4693 30.4974C66.0413 30.4974 68.0827 32.5925 68.0827 35.2296Z" fill="#717680"/>
<path d="M85.7514 38.7207C83.1545 39.6897 81.5746 40 79.4297 40C72.771 40 68.1423 35.6949 68.1423 29.5284C68.1423 24.4094 71.4899 18.8232 79.2038 18.8232C81.3103 18.8232 83.5682 19.1717 85.6001 19.8707V26.6577C83.8689 25.8438 82.2889 25.4551 80.6343 25.4551C77.8498 25.4551 75.9692 27.0848 75.9692 29.4499C75.9692 31.7767 77.9628 33.3681 80.8603 33.3681C82.3272 33.3681 83.6065 33.0196 85.7514 32.0888V38.7207V38.7207Z" fill="#717680"/>
<path d="M98.7319 18.8232C107.371 18.8232 110.674 24.4477 110.674 29.4116C110.674 34.8408 106.873 40 98.8085 40C90.1696 40 86.7896 34.4157 86.7896 29.4116C86.7915 24.1375 90.3611 18.8232 98.7319 18.8232ZM98.7319 33.3681C101.174 33.3681 102.855 31.7384 102.855 29.4116C102.855 27.0848 101.174 25.4551 98.7319 25.4551C96.2902 25.4551 94.6088 27.0848 94.6088 29.4116C94.6107 31.7403 96.2902 33.3681 98.7319 33.3681Z" fill="#717680"/>
<path d="M112.369 19.1717H120.176V21.8873C122.067 19.7922 124.294 18.8232 126.764 18.8232C129.581 18.8232 131.395 19.909 132.9 22.4695C134.945 20.1044 137.454 18.8232 140.156 18.8232C144.749 18.8232 146.738 22.4695 146.738 26.5409V39.6514H138.931V27.8987C138.931 26.4241 138.065 25.4551 136.753 25.4551C135.595 25.4551 134.294 26.1924 133.484 27.5501V39.6514H125.621V28.0538C125.621 26.5409 124.717 25.4551 123.327 25.4551C122.323 25.4551 121.023 26.1924 120.174 27.5501V39.6514H112.369V19.1717Z" fill="#717680"/>
<path d="M155.984 0.758366C162.099 0.758366 167.073 5.79308 167.073 11.9826C167.073 18.1682 162.099 23.201 155.984 23.201C149.87 23.201 144.892 18.1682 144.892 11.9826C144.892 5.79499 149.868 0.758366 155.984 0.758366ZM155.984 0C149.45 0 144.134 5.37559 144.134 11.9826C144.134 18.5876 149.45 23.9613 155.984 23.9613C162.517 23.9613 167.831 18.5876 167.831 11.9826C167.831 5.37559 162.517 0 155.984 0Z" fill="#717680"/>
<path d="M150.49 13.0646C148.956 13.0646 147.3 12.0075 147.3 10.2993C147.3 7.04939 151.428 4.06189 152.849 3.39736C153.072 3.29395 153.42 3.71717 153.552 3.98145C153.661 4.19786 153.617 4.2802 153.562 4.30893C150.971 5.69544 148.184 8.29993 148.184 10.7378C148.184 11.7949 148.74 12.2067 150.164 12.2067C151.84 12.2067 155.647 9.89709 155.647 8.2329C155.647 7.61051 155.186 7.29452 154.274 7.29452C152.016 7.29452 150.798 8.76529 150.444 10.0273C150.417 10.1212 150.314 10.1614 150.174 10.1346C149.994 10.0982 149.812 9.95838 149.833 9.79751C149.979 8.67911 151.164 6.22783 153.746 6.22783C154.902 6.22783 156.318 7.26579 156.318 8.47995C156.318 10.8412 153.035 13.0646 150.49 13.0646ZM153.514 4.21892L153.539 4.26488L153.514 4.21892Z" fill="#717680"/>
<path d="M154.194 20.9489C152.919 20.9489 150.76 20.3725 150.76 18.2142C150.76 16.5462 152.156 14.5871 154.799 12.5495L154.864 12.4977C155.04 12.3599 155.481 12.6375 155.68 12.8846C155.86 13.1067 155.776 13.2178 155.732 13.2542C154.474 14.3075 151.528 16.7722 151.528 18.7696C151.528 19.5433 152.149 20.0259 153.146 20.0259C154.456 20.0259 156.086 19.6486 157.739 18.9611C157.951 18.8749 158.2 19.1564 158.309 19.3862C158.409 19.5931 158.401 19.7539 158.29 19.8152C156.825 20.6215 155.638 20.9489 154.194 20.9489Z" fill="#717680"/>
<path d="M159.765 13.1834C156.977 13.1834 156.946 11.1285 156.946 11.0404C156.946 10.5808 157.224 10.2476 157.388 10.0886C157.505 9.97565 157.748 10.035 157.846 10.0657C158.039 10.1269 158.248 10.2495 158.277 10.3855C158.288 10.441 158.267 10.4966 158.219 10.5368C157.827 10.87 157.639 11.1113 157.639 11.5747C157.639 11.9731 158.055 12.3963 158.825 12.3963C161.856 12.3963 163.788 9.79181 163.788 8.42828C163.788 7.1854 162.875 6.92495 162.111 6.92495C159.453 6.92495 157.503 9.46624 157.421 9.5754C157.381 9.62902 157.323 9.65201 157.254 9.64243C157.045 9.61562 156.758 9.2958 156.649 9.03727C156.59 8.89555 156.588 8.78065 156.643 8.70788C156.856 8.42828 157.48 7.73502 158.313 7.11837C159.393 6.31979 160.439 5.91571 161.425 5.91571C163.543 5.91571 164.508 7.46308 164.508 8.9013C164.507 11.1841 162.291 13.1834 159.765 13.1834Z" fill="#717680"/>
</g>
<defs>
<clipPath id="svg-596102841_5395_clip0_23_5642">
<rect width="167.662" height="40" fill="white" transform="translate(0.168945)"/>
</clipPath>
</defs>
</svg>