<svg xmlns="http://www.w3.org/2000/svg" width="142" height="40" viewBox="0 0 142 40" fill="none">
<g clip-path="url(#svg-557823801_5177_clip0_23_5776)">
<mask id="svg-557823801_5177_mask0_23_5776" style="mask-type:luminance" maskUnits="userSpaceOnUse" x="0" y="0" width="32" height="18">
<path fill-rule="evenodd" clip-rule="evenodd" d="M0.0463867 0H31.1324V17.9214H0.0463867V0Z" fill="white"/>
</mask>
<g mask="url(#svg-557823801_5177_mask0_23_5776)">
<path fill-rule="evenodd" clip-rule="evenodd" d="M0.221199 17.9215H15.594C16.6015 17.9215 18.1468 17.5252 19.0383 17.0394L31.0416 10.4833C31.0977 10.4539 31.1324 10.3939 31.1324 10.3312V0.174669C31.1324 0.11195 31.1003 0.055903 31.047 0.0238763C30.9936 -0.00815048 30.9282 -0.00815048 30.8735 0.0212074L16.8458 7.67961C15.921 8.18536 14.317 8.59637 13.2721 8.59637H0.221199C0.174494 8.59637 0.130457 8.61505 0.0970957 8.64842C0.065069 8.68044 0.0463867 8.72581 0.0463867 8.77252V17.7467C0.0463867 17.8428 0.125119 17.9215 0.221199 17.9215" fill="#717680"/>
</g>
<path fill-rule="evenodd" clip-rule="evenodd" d="M47.2632 17.9204L63.5488 17.9217C63.5955 17.9217 63.6395 17.9031 63.6715 17.8697C63.7049 17.8377 63.7236 17.7923 63.7236 17.7456V8.77142C63.7236 8.67401 63.6448 8.59661 63.5488 8.59661L44.9412 8.59528C43.931 8.59528 42.3857 8.99027 41.4957 9.47735L20.0858 21.1671C19.1624 21.6742 17.5597 22.0852 16.5121 22.0852L0.221199 22.0839C0.174494 22.0839 0.130457 22.1026 0.0970957 22.1359C0.065069 22.1679 0.0463867 22.212 0.0463867 22.2587V31.2342C0.0463867 31.2809 0.065069 31.3249 0.0984302 31.3583C0.130457 31.3903 0.174494 31.409 0.221199 31.409L18.8354 31.4077C19.8416 31.4077 21.3869 31.0113 22.2796 30.5243L43.6882 18.8358C44.6156 18.3314 46.2183 17.9204 47.2632 17.9204" fill="#717680"/>
<mask id="svg-557823801_5177_mask1_23_5776" style="mask-type:luminance" maskUnits="userSpaceOnUse" x="32" y="22" width="32" height="18">
<path fill-rule="evenodd" clip-rule="evenodd" d="M32.6416 22.0758H63.7276V40H32.6416V22.0758Z" fill="white"/>
</mask>
<g mask="url(#svg-557823801_5177_mask1_23_5776)">
<path fill-rule="evenodd" clip-rule="evenodd" d="M63.5528 22.0785L48.1853 22.0758H48.1799C47.1737 22.0758 45.6325 22.4721 44.7397 22.9579L32.7323 29.5127C32.6763 29.5434 32.6416 29.6021 32.6416 29.6661V39.8253C32.6416 39.8867 32.6736 39.9441 32.727 39.9748C32.7537 39.9921 32.7857 40.0001 32.8164 40.0001C32.8444 40.0001 32.8738 39.9934 32.8992 39.9788L46.9309 32.3177C47.8583 31.8146 49.4623 31.4036 50.5059 31.4036H63.5528C63.6488 31.4036 63.7276 31.3249 63.7276 31.2288V22.2533C63.7276 22.1572 63.6488 22.0785 63.5528 22.0785" fill="#717680"/>
</g>
<path fill-rule="evenodd" clip-rule="evenodd" d="M119.359 8.56675H112.237C112.214 8.56541 112.193 8.56675 112.171 8.57342C112.114 8.59077 112.07 8.63614 112.054 8.69219C111.99 8.89636 108.676 19.2543 107.6 22.6185C106.6 19.3157 103.379 8.69085 103.379 8.69085C103.357 8.61746 103.289 8.56675 103.212 8.56675H96.5544C96.4983 8.56675 96.4449 8.59344 96.4129 8.64014C96.3795 8.68552 96.3702 8.74423 96.3889 8.79761L104.07 31.2991C104.095 31.3698 104.162 31.4178 104.237 31.4178H111.436C111.51 31.4178 111.576 31.3698 111.6 31.3004L119.524 8.80028C119.543 8.74557 119.535 8.68685 119.502 8.64014C119.468 8.59477 119.415 8.56675 119.359 8.56675" fill="#717680"/>
<path fill-rule="evenodd" clip-rule="evenodd" d="M133.807 17.0501C133.424 17.2596 132.842 17.2596 131.96 17.2596H129.666V13.3737H132.411C133.008 13.3737 133.523 13.3737 134.036 13.7847C134.437 14.117 134.676 14.7015 134.676 15.3487C134.676 16.0947 134.349 16.7325 133.807 17.0501ZM129.695 22.3493H132.32C133.679 22.3493 135.068 22.6055 135.068 24.5111C135.068 26.3446 133.696 26.5795 132.502 26.5795H129.695V22.3493ZM137.171 19.5657C138.627 19.136 141.351 17.9951 141.351 14.4441C141.351 12.8655 140.775 11.523 139.637 10.4514C137.599 8.5672 134.746 8.5672 131.988 8.5672H123.281C123.185 8.5672 123.106 8.6446 123.106 8.74201V31.2421C123.106 31.3382 123.185 31.417 123.281 31.417H132.891C134.862 31.417 137.095 31.417 138.85 30.4602C141.415 29.0496 141.954 26.8198 141.954 25.1958C141.954 21.0203 138.836 19.934 137.171 19.5657Z" fill="#717680"/>
<path fill-rule="evenodd" clip-rule="evenodd" d="M91.5903 10.6787C89.9329 8.90521 87.2133 8.00446 83.5088 8.00446C80.7679 8.00446 76.9594 8.5329 74.3759 11.0483C71.3093 14.1069 71.0718 18.7628 71.0718 20.1172C71.0718 24.0806 72.5677 27.5154 75.1765 29.5411C77.2076 31.1171 79.9819 31.9164 83.4194 31.9164C86.4513 31.9164 89.6993 31.4947 93.0715 30.6647C93.1502 30.646 93.2049 30.5753 93.2049 30.4952V18.4652C93.2049 18.3678 93.1262 18.2904 93.0301 18.2904H82.7549C82.6588 18.2904 82.5801 18.3678 82.5801 18.4652V23.2986C82.5801 23.3946 82.6588 23.4734 82.7549 23.4734H86.6461V26.4759C85.6293 26.652 84.7912 26.7334 84.0226 26.7334C80.3275 26.7334 78.2925 24.3394 78.2925 19.9918C78.2925 18.4025 78.6474 13.2181 83.2072 13.2181C84.4269 13.2181 85.9442 13.6145 86.2511 15.5014C86.2645 15.5855 86.3379 15.6482 86.4233 15.6482H93.0888C93.1355 15.6482 93.1809 15.6282 93.2143 15.5948C93.2463 15.5614 93.265 15.5147 93.2636 15.468L93.2623 15.4227C93.2316 14.299 93.1809 12.4201 91.5903 10.6787" fill="#717680"/>
</g>
<defs>
<clipPath id="svg-557823801_5177_clip0_23_5776">
<rect width="141.907" height="40" fill="white" transform="translate(0.0463867)"/>
</clipPath>
</defs>
</svg>