<svg xmlns="http://www.w3.org/2000/svg" xmlns:xlink="http://www.w3.org/1999/xlink" viewBox="0 0 182 32"><g transform="translate(0.895 0.026)"><g transform="translate(0 0)"><path d="M 0 32.868 L 0 0.868 L 180.211 0.868 L 180.211 32.868 Z" fill="transparent"></path><path d="M 17.117 0 L 20.801 11.21 L 20.907 11.21 L 17.222 0 Z M 33.196 12.71 L 33.091 12.789 L 23.564 19.737 L 27.196 31 L 27.222 31.079 L 27.301 31.026 L 23.696 19.763 L 33.222 12.789 Z M 16.328 25.026 L 6.775 31.921 L 6.854 31.974 L 16.38 25.053 Z" fill="#717680"></path><path d="M 70.739 16.873 C 70.739 17.956 70.272 18.278 68.518 18.89 C 67.114 19.418 66.033 19.651 65.711 19.651 C 65.125 19.651 64.863 19.212 64.863 18.306 C 64.863 16.143 65.476 13.511 67.757 13.511 C 69.862 13.511 70.739 15.792 70.739 16.873 Z M 47.932 26.318 C 47.932 26.142 47.904 26.026 47.817 25.938 C 47.582 25.703 46.705 25.558 46.266 25.119 C 45.946 24.797 45.74 24.242 45.74 22.956 L 45.74 18.013 C 45.74 17.632 45.829 17.4 46.209 17.4 L 51.238 17.4 C 51.618 17.4 51.705 17.632 51.705 18.013 L 51.705 22.956 C 51.705 24.242 51.501 24.797 51.179 25.119 C 50.74 25.558 49.863 25.703 49.63 25.938 C 49.541 26.026 49.513 26.142 49.513 26.318 C 49.513 27.077 49.63 27.839 49.746 27.954 C 49.863 28.072 50.039 28.101 50.419 28.101 L 58.635 28.101 C 59.015 28.101 59.19 28.072 59.307 27.954 C 59.424 27.839 59.542 27.077 59.542 26.318 C 59.542 26.142 59.512 26.026 59.424 25.938 C 59.22 25.733 58.313 25.558 57.874 25.119 C 57.554 24.797 57.378 24.183 57.378 23.188 L 57.378 9.535 C 57.378 8.833 57.554 8.364 57.816 8.103 C 58.284 7.635 59.22 7.546 59.424 7.341 C 59.512 7.253 59.542 7.079 59.542 6.932 C 59.542 6.406 59.424 5.617 59.307 5.5 C 59.19 5.383 59.074 5.352 58.635 5.352 L 50.711 5.352 C 50.39 5.352 50.273 5.383 50.185 5.471 C 50.098 5.559 50.01 6.172 50.01 6.962 C 50.01 7.107 50.039 7.283 50.098 7.341 C 50.243 7.488 50.975 7.722 51.267 8.015 C 51.589 8.337 51.705 8.687 51.705 9.681 L 51.705 13.569 C 51.705 13.716 51.559 13.92 51.355 13.92 L 46.092 13.92 C 45.886 13.92 45.74 13.716 45.74 13.569 L 45.74 9.681 C 45.74 8.687 45.857 8.337 46.179 8.015 C 46.472 7.722 47.202 7.488 47.349 7.341 C 47.407 7.283 47.437 7.107 47.437 6.962 C 47.437 6.172 47.349 5.559 47.261 5.471 C 47.174 5.383 47.056 5.352 46.735 5.352 L 38.812 5.352 C 38.373 5.352 38.256 5.383 38.138 5.5 C 38.022 5.617 37.904 6.406 37.904 6.932 C 37.904 7.079 37.934 7.253 38.022 7.341 C 38.226 7.546 39.162 7.635 39.63 8.103 C 39.893 8.364 40.069 8.833 40.069 9.535 L 40.069 23.188 C 40.069 24.183 39.893 24.797 39.572 25.119 C 39.133 25.558 38.226 25.733 38.022 25.938 C 37.934 26.026 37.904 26.142 37.904 26.318 C 37.904 27.077 38.022 27.839 38.138 27.954 C 38.256 28.072 38.373 28.101 38.812 28.101 L 47.027 28.101 C 47.407 28.101 47.582 28.072 47.7 27.954 C 47.817 27.839 47.932 27.077 47.932 26.318 Z M 75.096 25.908 C 75.943 25.061 76.15 24.563 76.15 24.153 C 76.15 23.714 76.032 23.364 75.681 23.013 C 75.3 22.633 74.98 22.574 74.686 22.574 C 74.277 22.574 74.101 22.691 73.839 22.956 C 72.553 24.242 70.915 24.943 68.926 24.943 C 66.91 24.943 65.652 23.599 65.652 22.749 C 65.652 22.517 65.857 22.311 66.382 22.165 C 71.997 20.41 74.336 19.242 75.213 18.364 C 75.71 17.897 75.914 17.341 75.914 16.844 C 75.914 14.622 72.699 10.676 67.757 10.676 C 65.711 10.676 63.635 11.492 62.085 13.043 C 60.536 14.593 59.571 16.785 59.571 19.768 C 59.571 22.633 60.477 24.622 62.056 26.201 C 63.635 27.78 65.915 28.569 68.401 28.569 C 70.944 28.569 73.342 27.663 75.096 25.908 Z M 84.247 11.668 C 84.247 11.289 84.042 11.142 83.721 11.142 L 78.078 11.142 C 77.756 11.142 77.64 11.142 77.551 11.26 C 77.435 11.377 77.319 12.166 77.319 12.693 C 77.319 12.839 77.377 12.954 77.435 13.043 C 77.64 13.306 78.078 13.393 78.459 13.716 C 78.721 13.979 78.839 14.534 78.839 15.382 L 78.839 23.188 C 78.839 24.183 78.721 24.826 78.429 25.119 C 77.99 25.558 77.259 25.762 77.055 25.966 C 76.997 26.026 76.967 26.142 76.967 26.347 C 76.967 27.107 77.084 27.839 77.201 27.954 C 77.29 28.042 77.435 28.101 77.756 28.101 L 85.272 28.101 C 85.593 28.101 85.739 28.042 85.826 27.954 C 85.943 27.839 86.031 27.107 86.031 26.347 C 86.031 26.142 86.002 26.026 85.943 25.966 C 85.739 25.762 85.066 25.558 84.627 25.119 C 84.336 24.826 84.247 24.183 84.247 23.188 L 84.247 11.668 Z M 81.119 4.301 C 79.512 4.301 78.195 5.559 78.195 7.138 C 78.195 8.745 79.512 10.003 81.119 10.003 C 82.757 10.003 84.073 8.745 84.073 7.138 C 84.073 5.559 82.757 4.301 81.119 4.301 Z M 103.779 15.674 C 103.779 12.4 102.083 10.733 99.422 10.733 C 98.164 10.733 96.82 11.142 95.475 11.962 C 95.007 12.254 94.861 12.342 94.744 12.342 C 94.276 12.342 94.598 11.142 93.75 11.142 L 88.604 11.142 C 88.282 11.142 88.195 11.142 88.078 11.26 C 87.932 11.406 87.815 12.166 87.815 12.693 C 87.815 12.839 87.844 12.954 87.932 13.043 C 88.165 13.278 88.604 13.365 88.955 13.716 C 89.219 13.979 89.334 14.534 89.334 15.382 L 89.334 23.188 C 89.334 24.183 89.246 24.826 88.955 25.119 C 88.545 25.527 87.844 25.762 87.639 25.966 C 87.581 26.026 87.551 26.142 87.551 26.347 C 87.551 27.107 87.639 27.839 87.757 27.954 C 87.844 28.042 88.019 28.101 88.341 28.101 L 95.71 28.101 C 96.06 28.101 96.176 28.042 96.263 27.954 C 96.411 27.808 96.529 27.107 96.529 26.347 C 96.529 26.142 96.498 26.026 96.439 25.966 C 96.206 25.733 95.534 25.527 95.124 25.119 C 94.832 24.826 94.686 24.183 94.686 23.188 L 94.686 17.429 C 94.686 15.061 96 14.33 96.966 14.33 C 97.96 14.33 98.516 15.061 98.516 16.609 L 98.516 24.71 C 98.516 26.873 99.89 28.305 102.376 28.305 C 105.123 28.305 106.292 26.318 106.292 25.908 C 106.292 25.558 105.738 24.856 105.387 24.856 C 104.977 24.856 104.392 25.382 104.1 25.382 C 103.896 25.382 103.779 25.236 103.779 24.768 L 103.779 15.674 Z M 157.958 25.908 C 158.805 25.061 159.009 24.563 159.009 24.153 C 159.009 23.714 158.894 23.364 158.543 23.013 C 158.162 22.633 157.839 22.574 157.548 22.574 C 157.139 22.574 156.963 22.691 156.7 22.956 C 155.414 24.242 153.777 24.943 151.788 24.943 C 149.771 24.943 148.514 23.599 148.514 22.749 C 148.514 22.517 148.718 22.311 149.244 22.165 C 154.858 20.41 157.197 19.242 158.075 18.364 C 158.571 17.897 158.776 17.341 158.776 16.844 C 158.776 14.622 155.56 10.676 150.619 10.676 C 148.57 10.676 146.496 11.492 144.945 13.043 C 143.397 14.593 142.431 16.785 142.431 19.768 C 142.431 22.633 143.338 24.622 144.917 26.201 C 146.496 27.78 148.777 28.569 151.261 28.569 C 153.805 28.569 156.204 27.663 157.958 25.908 Z M 153.601 16.873 C 153.601 17.956 153.134 18.278 151.379 18.89 C 149.976 19.418 148.894 19.651 148.57 19.651 C 147.987 19.651 147.723 19.212 147.723 18.306 C 147.723 16.143 148.338 13.511 150.619 13.511 C 152.723 13.511 153.601 15.792 153.601 16.873 Z M 122.023 25.908 C 122.87 25.061 123.077 24.563 123.077 24.153 C 123.077 23.714 122.959 23.364 122.608 23.013 C 122.228 22.633 121.907 22.574 121.615 22.574 C 121.203 22.574 121.029 22.691 120.766 22.956 C 119.48 24.242 117.842 24.943 115.854 24.943 C 113.837 24.943 112.579 23.599 112.579 22.749 C 112.579 22.517 112.784 22.311 113.31 22.165 C 118.924 20.41 121.263 19.242 122.14 18.364 C 122.638 17.897 122.842 17.341 122.842 16.844 C 122.842 14.622 119.626 10.676 114.684 10.676 C 112.638 10.676 110.562 11.492 109.012 13.043 C 107.463 14.593 106.498 16.785 106.498 19.768 C 106.498 22.633 107.404 24.622 108.982 26.201 C 110.562 27.78 112.843 28.569 115.328 28.569 C 117.871 28.569 120.269 27.663 122.023 25.908 Z M 117.667 16.873 C 117.667 17.956 117.199 18.278 115.445 18.89 C 114.041 19.418 112.96 19.651 112.638 19.651 C 112.052 19.651 111.79 19.212 111.79 18.306 C 111.79 16.143 112.404 13.511 114.684 13.511 C 116.789 13.511 117.667 15.792 117.667 16.873 Z M 176.201 15.674 C 176.201 12.4 174.506 10.733 171.846 10.733 C 170.588 10.733 169.243 11.142 167.899 11.962 C 167.43 12.254 167.283 12.342 167.168 12.342 C 166.7 12.342 167.021 11.142 166.174 11.142 L 161.028 11.142 C 160.706 11.142 160.618 11.142 160.501 11.26 C 160.355 11.406 160.238 12.166 160.238 12.693 C 160.238 12.839 160.267 12.954 160.355 13.043 C 160.589 13.278 161.028 13.365 161.379 13.716 C 161.641 13.979 161.759 14.534 161.759 15.382 L 161.759 23.188 C 161.759 24.183 161.67 24.826 161.379 25.119 C 160.968 25.527 160.267 25.762 160.063 25.966 C 160.004 26.026 159.975 26.142 159.975 26.347 C 159.975 27.107 160.063 27.839 160.178 27.954 C 160.267 28.042 160.443 28.101 160.764 28.101 L 168.131 28.101 C 168.483 28.101 168.6 28.042 168.688 27.954 C 168.835 27.808 168.95 27.107 168.95 26.347 C 168.95 26.142 168.922 26.026 168.863 25.966 C 168.629 25.733 167.957 25.527 167.547 25.119 C 167.255 24.826 167.107 24.183 167.107 23.188 L 167.107 17.429 C 167.107 15.061 168.424 14.33 169.389 14.33 C 170.384 14.33 170.939 15.061 170.939 16.609 L 170.939 24.71 C 170.939 26.873 172.314 28.305 174.799 28.305 C 177.547 28.305 178.717 26.318 178.717 25.908 C 178.717 25.558 178.161 24.856 177.81 24.856 C 177.401 24.856 176.817 25.382 176.524 25.382 C 176.319 25.382 176.201 25.236 176.201 24.768 Z M 130.297 4.827 L 124.684 4.827 C 124.332 4.827 124.186 4.827 124.1 4.975 C 123.982 5.12 123.894 5.851 123.894 6.348 C 123.894 6.523 123.924 6.64 123.982 6.757 C 124.186 6.962 124.977 7.166 125.327 7.518 C 125.619 7.81 125.766 8.395 125.766 10.616 L 125.766 22.311 C 125.766 24.271 125.562 24.885 125.327 25.119 C 124.918 25.527 124.217 25.762 124.011 25.966 C 123.954 26.026 123.924 26.142 123.924 26.347 C 123.924 27.107 124.011 27.839 124.128 27.954 C 124.217 28.042 124.332 28.101 124.714 28.101 L 132.052 28.101 C 132.432 28.101 132.548 28.042 132.637 27.954 C 132.754 27.839 132.9 27.107 132.9 26.347 C 132.9 26.142 132.871 26.026 132.783 25.966 C 132.579 25.762 131.877 25.527 131.496 25.119 C 131.176 24.826 131.058 24.183 131.058 23.188 L 131.058 22.517 C 131.058 22.137 131.176 22.019 131.819 21.376 C 132.11 21.113 132.372 20.909 132.579 20.909 C 132.871 20.909 133.104 21.113 136.321 27.604 C 136.525 28.013 136.612 28.101 137.139 28.101 L 141.904 28.101 C 142.256 28.101 142.374 28.042 142.461 27.954 C 142.578 27.839 142.695 27.107 142.695 26.347 C 142.695 26.142 142.666 26.026 142.606 25.966 C 142.402 25.762 141.175 25.616 140.911 25.119 C 136.673 17.956 136.555 17.721 136.555 17.283 C 136.555 16.903 138.426 15.032 139.976 13.804 C 140.97 13.014 141.612 13.54 141.612 12.605 C 141.612 11.523 141.467 11.142 141.262 11.142 L 134.187 11.142 C 133.572 11.142 133.515 11.492 133.515 12.809 C 133.515 13.247 134.742 13.306 134.742 13.92 C 134.742 14.446 131.76 17.312 131.263 17.312 C 131.087 17.312 131.058 17.196 131.058 16.698 L 131.058 5.646 C 131.058 5.178 130.736 4.827 130.297 4.827" fill="#717680"></path><path d="M 16.308 0.242 L 20.189 12.046 L 32.615 12.09 L 22.588 19.429 L 26.386 31.26 L 16.308 23.992 L 6.229 31.26 L 10.027 19.429 L 0 12.09 L 12.426 12.046 Z" fill="#717680"></path><path d="M 176.216 4.211 C 176.708 4.211 177.179 4.335 177.631 4.582 C 178.082 4.826 178.437 5.178 178.694 5.637 C 178.953 6.096 179.083 6.576 179.083 7.078 C 179.083 7.577 178.955 8.053 178.701 8.507 C 178.449 8.959 178.096 9.312 177.642 9.566 C 177.19 9.818 176.715 9.944 176.216 9.944 C 175.717 9.944 175.241 9.818 174.786 9.566 C 174.335 9.312 173.982 8.959 173.727 8.507 C 173.475 8.053 173.349 7.577 173.349 7.078 C 173.349 6.576 173.478 6.096 173.735 5.637 C 173.994 5.178 174.35 4.826 174.801 4.582 C 175.253 4.335 175.725 4.211 176.216 4.211 Z M 176.22 4.772 C 175.826 4.772 175.448 4.871 175.086 5.068 C 174.725 5.265 174.439 5.548 174.229 5.918 C 174.022 6.287 173.919 6.674 173.919 7.078 C 173.919 7.479 174.02 7.862 174.222 8.227 C 174.426 8.591 174.711 8.875 175.075 9.08 C 175.439 9.284 175.821 9.387 176.22 9.387 C 176.622 9.387 177.004 9.284 177.365 9.08 C 177.73 8.875 178.014 8.591 178.219 8.227 C 178.423 7.862 178.526 7.479 178.526 7.078 C 178.526 6.674 178.421 6.287 178.211 5.918 C 178.004 5.548 177.718 5.265 177.354 5.068 C 176.992 4.871 176.614 4.772 176.22 4.772 Z M 174.922 8.612 L 174.922 5.57 L 175.539 5.57 C 176.118 5.57 176.442 5.572 176.512 5.577 C 176.717 5.595 176.875 5.636 176.987 5.701 C 177.102 5.763 177.197 5.86 177.272 5.993 C 177.349 6.122 177.388 6.267 177.388 6.427 C 177.388 6.646 177.316 6.835 177.171 6.992 C 177.029 7.146 176.828 7.242 176.568 7.28 C 176.661 7.315 176.732 7.353 176.782 7.396 C 176.832 7.436 176.9 7.513 176.987 7.628 C 177.01 7.658 177.085 7.781 177.212 7.998 L 177.571 8.612 L 176.808 8.612 L 176.553 8.118 C 176.381 7.786 176.239 7.578 176.127 7.493 C 176.014 7.406 175.872 7.362 175.7 7.362 L 175.539 7.362 L 175.539 8.612 L 174.922 8.612 Z M 175.539 6.883 L 175.79 6.883 C 176.147 6.883 176.367 6.869 176.452 6.842 C 176.54 6.815 176.608 6.767 176.658 6.7 C 176.708 6.63 176.733 6.551 176.733 6.464 C 176.733 6.379 176.708 6.304 176.658 6.24 C 176.611 6.172 176.542 6.125 176.452 6.097 C 176.362 6.067 176.142 6.052 175.79 6.052 L 175.539 6.052 L 175.539 6.883" fill="#717680"></path></g></g></svg>