<svg xmlns="http://www.w3.org/2000/svg" width="140" height="40" viewBox="0 0 140 40" fill="none">
<g clip-path="url(#svg1293702185_5443_clip0_23_5442)">
<path d="M113.652 6.5497C115.445 6.5497 116.849 5.06823 116.849 3.27485C116.849 1.48148 115.367 0 113.652 0C111.937 0 110.455 1.48148 110.455 3.27485C110.455 5.06823 111.859 6.5497 113.652 6.5497Z" fill="#717680"/>
<path d="M85.7373 8.81091H90.5716V11.7739C92.287 9.59064 94.9381 8.34308 97.7451 8.34308C103.827 8.34308 108.427 13.4893 108.427 19.8051C108.427 26.1209 103.827 31.2671 97.7451 31.2671C94.9381 31.2671 92.287 30.0195 90.5716 27.8363V40H85.7373V8.81091ZM96.8874 12.7875C92.9108 12.7875 90.2597 15.8285 90.2597 19.883C90.2597 23.9376 92.9888 26.9786 96.8874 26.9786C100.786 26.9786 103.515 23.9376 103.515 19.883C103.515 15.8285 100.786 12.7875 96.8874 12.7875Z" fill="#717680"/>
<path d="M119.656 8.81092H124.568V11.7739C126.05 9.51267 128.623 8.18714 131.274 8.34308C136.42 8.34308 139.773 12.0078 139.773 17.5439V30.7992H134.938V18.3236C134.938 14.8148 133.145 12.7095 130.338 12.7095C127.141 12.7095 124.646 15.2047 124.646 19.883V30.7212H119.812V8.81092H119.656Z" fill="#717680"/>
<path d="M48.6223 8.34311C45.9713 8.18716 43.3982 9.5127 41.9167 11.7739V0.0780029H37.0044V30.8772H41.9167V20.039C41.9167 15.3606 44.4118 12.8655 47.6087 12.8655C50.4157 12.8655 52.2091 14.9708 52.2091 18.4796V30.9552H57.0434V17.6998C57.0434 12.0078 53.7685 8.34311 48.6223 8.34311Z" fill="#717680"/>
<path d="M116.069 8.81091H111.234V30.8772H116.069V8.81091Z" fill="#717680"/>
<path d="M71.4686 31.267C65.1528 31.1891 60.0845 25.9649 60.1625 19.6491C60.2405 13.3333 65.4647 8.26508 71.7804 8.34305C78.0962 8.42102 83.1645 13.5672 83.0865 19.805C83.0865 26.1208 78.0183 31.267 71.7804 31.267C71.6245 31.267 71.5465 31.267 71.4686 31.267ZM71.4686 26.7446C75.3672 26.7446 78.0962 23.7037 78.0962 19.805C78.0962 15.9064 75.3672 12.8655 71.4686 12.8655C67.5699 12.8655 64.7629 15.9064 64.7629 19.805C64.7629 23.7037 67.4919 26.7446 71.4686 26.7446Z" fill="#717680"/>
<path d="M19.3048 5.92596C19.3048 7.40744 18.2131 9.5127 16.4977 9.5127C15.4061 9.5127 14.5484 8.655 14.4704 7.56338C14.4704 5.92595 13.6907 4.28853 12.4432 3.27488C11.5075 2.49516 10.3379 1.94935 9.09033 1.87137C10.182 0.701784 11.7414 0.0780029 13.3788 0.0780029C15.4841 0.155976 17.4334 1.24759 18.525 3.04096C19.0708 3.89866 19.3048 4.91231 19.3048 5.92596Z" fill="#717680"/>
<path d="M12.3653 6.08189C13.301 7.25148 13.8468 9.51269 12.5213 10.6043C11.6636 11.3061 10.416 11.2281 9.71426 10.3704C7.68697 8.18715 4.41212 7.71932 1.91699 9.43472C2.07294 7.87526 2.77469 6.39378 4.02226 5.38014C5.73766 4.0546 7.99886 3.66474 10.0262 4.44446C10.9618 4.75635 11.7416 5.30216 12.3653 6.08189Z" fill="#717680"/>
<path d="M7.21905 10.6043C8.70053 10.9162 10.5719 12.3197 10.338 13.9571C10.104 15.0487 9.09039 15.7505 7.99877 15.5165C4.95784 15.1267 2.15082 16.9201 1.37109 19.805C-0.578223 17.154 0.0455579 13.4893 2.61866 11.6179C3.16447 11.228 3.71027 10.9941 4.33406 10.7602C5.26973 10.4483 6.2054 10.4483 7.21905 10.6043Z" fill="#717680"/>
<path d="M6.12724 17.3879C7.45278 16.6862 9.79196 16.5302 10.6497 18.0117C11.1955 18.9474 10.8836 20.117 9.94791 20.6628C8.5444 21.5205 7.53075 22.924 7.21886 24.5614C6.98494 25.809 7.14089 27.0565 7.6867 28.1481C6.12724 27.7583 4.80171 26.7446 4.02198 25.3411C2.93036 23.4698 3.00834 21.1306 4.09995 19.2593C4.56779 18.5575 5.26954 17.8558 6.12724 17.3879Z" fill="#717680"/>
<path d="M9.6364 23.2359C10.1822 21.8324 11.8976 20.2729 13.535 20.8187C14.5487 21.2086 15.0945 22.3002 14.7046 23.3139C14.1588 24.8733 14.3148 26.5887 15.1725 27.9922C15.7962 29.0839 16.6539 29.9416 17.8235 30.4874C16.42 31.1891 14.7046 31.2671 13.2231 30.7213C11.1959 30.0195 9.6364 28.2262 9.32451 26.0429C9.24654 25.1072 9.32451 24.1716 9.6364 23.2359Z" fill="#717680"/>
<path d="M16.186 25.4971C15.7182 24.0936 15.9521 21.7544 17.5895 21.2086C18.6031 20.8187 19.6948 21.3645 20.0846 22.3782C20.7084 23.9376 21.956 25.1072 23.5154 25.731C24.685 26.1988 25.9326 26.2768 27.1801 25.9649C25.8546 28.9279 22.3458 30.2534 19.3829 28.9279C17.9014 28.2261 16.7318 26.9786 16.186 25.4971Z" fill="#717680"/>
<path d="M22.6575 23.002C21.41 22.2222 20.0844 20.2729 20.9421 18.7914C21.4879 17.8558 22.6575 17.5439 23.6712 18.0117C26.3222 19.4152 29.5971 18.7134 31.3905 16.2183C31.8583 17.7778 31.6244 19.4152 30.7667 20.7407C29.6751 22.6121 27.6478 23.7817 25.4645 23.7037C24.5289 23.7817 23.5152 23.4698 22.6575 23.002Z" fill="#717680"/>
<path d="M26.0104 16.9981C24.5289 17.232 22.2677 16.5303 21.9558 14.8928C21.7998 13.8792 22.5016 12.8655 23.5152 12.6316C23.5152 12.6316 23.5152 12.6316 23.5932 12.6316C25.2306 12.3197 26.6341 11.3061 27.4918 9.90257C28.1156 8.81095 28.4275 7.64136 28.2716 6.3938C29.5971 7.2515 30.5328 8.65501 30.7667 10.2145C31.1565 12.3197 30.3768 14.503 28.7394 15.8285C27.8817 16.4523 26.946 16.8421 26.0104 16.9981Z" fill="#717680"/>
<path d="M24.685 10.2924C23.6713 11.384 21.4881 12.3197 20.1625 11.2281C19.3048 10.6043 19.2269 9.35675 19.8507 8.49905C19.8507 8.49905 19.8507 8.49906 19.9286 8.42108C20.9423 7.09555 21.4101 5.45812 21.1762 3.8207C21.0202 2.57313 20.3965 1.48151 19.5388 0.545841C21.0982 0.389896 22.7356 0.857732 23.9832 1.94935C25.6206 3.35286 26.4004 5.53609 26.0105 7.64136C25.7766 8.655 25.3087 9.5127 24.685 10.2924Z" fill="#717680"/>
</g>
<defs>
<clipPath id="svg1293702185_5443_clip0_23_5442">
<rect width="139.546" height="40" fill="white" transform="translate(0.227051)"/>
</clipPath>
</defs>
</svg>