<svg xmlns="http://www.w3.org/2000/svg" width="124" height="56" viewBox="0 0 124 56" fill="none">
<g clip-path="url(#svg-778394681_4839_clip0_23_5761)">
<path d="M48.2195 42.9809C48.7329 41.1054 49.376 39.2677 50.1443 37.4814C51.3394 34.6047 52.5874 31.6328 52.5874 28.9148C52.5468 26.3886 51.5134 23.9798 49.7107 22.2096C48.082 20.5809 45.0572 18.6349 39.9279 18.6349C39.0009 18.6334 38.075 18.697 37.1569 18.8253C37.4042 19.6898 37.595 20.5695 37.7281 21.4587C38.4576 21.3661 39.1924 21.3201 39.9279 21.3212C44.1583 21.3212 46.5379 22.8336 47.8176 24.1027C49.1262 25.3718 49.8855 27.1031 49.9328 28.9254C49.8799 31.0935 48.8223 33.8432 47.6801 36.4449C46.8676 38.3483 46.189 40.3061 45.6495 42.304C44.5919 46.5345 42.8786 53.2925 38.6587 53.2925C37.0089 53.2925 35.2215 52.2349 33.4976 50.8389C32.6072 51.2967 31.6847 51.689 30.7373 52.0128C33.1592 54.128 35.8455 55.9683 38.6587 55.9683C45.0044 55.9683 47.1196 47.6978 48.2406 42.9492" fill="#717680"/>
<path d="M11.1192 25.3824C9.87324 22.4987 9.15674 19.4142 9.00402 16.2765C9.00402 11.126 10.2837 6.89556 12.4941 4.64287C13.1376 3.99626 13.9071 3.4889 14.7549 3.15231C15.6028 2.81572 16.5108 2.6571 17.4225 2.68631C22.5202 2.68631 32.0386 7.33975 36.0786 15.9909C37.0088 15.83 37.9486 15.7311 38.8918 15.6948C34.6191 5.36204 23.5249 0 17.4331 0C9.25785 0 6.33887 8.38678 6.33887 16.2342C6.48461 19.7123 7.26228 23.1347 8.63386 26.3343C9.39534 25.9853 10.2203 25.6574 11.1192 25.3401" fill="#717680"/>
<path d="M29.0456 46.6402C27.3142 47.2547 25.4889 47.5625 23.6518 47.5498C17.179 47.4564 10.9803 44.9218 6.29657 40.4532C4.10734 38.2746 2.84879 35.9584 2.84879 34.0442C2.80703 32.8236 3.07632 31.6125 3.63134 30.5247C4.18636 29.4369 5.00888 28.508 6.02159 27.8255C5.71489 27.1063 5.37646 26.2285 5.0486 25.2449C3.52605 26.1446 2.27137 27.4346 1.41424 28.9815C0.557109 30.5285 0.128621 32.2762 0.173058 34.0442C0.173058 36.6776 1.67485 39.6283 4.40346 42.304C9.56739 47.3149 16.4568 50.154 23.6518 50.2361C26.1987 50.2501 28.7205 49.7314 31.055 48.7131C30.3359 48.0045 29.6484 47.2959 29.0139 46.5979" fill="#717680"/>
<path d="M114.764 22.3048C111.822 22.279 108.902 22.8212 106.166 23.9018V40.5696H111.76V27.191C112.667 26.8098 113.643 26.619 114.626 26.6304C117.651 26.6304 118.233 28.4707 118.233 31.9184V40.6013H123.827V31.0829C123.827 25.7949 122.051 22.3366 114.764 22.3366" fill="#717680"/>
<path d="M66.6429 16.0967H61.0693V40.5802H66.6429V16.0967Z" fill="#717680"/>
<path d="M73.0626 40.5802H79.6726L72.7453 30.7445L79.1015 22.95H72.7453L66.6641 30.9454L73.0626 40.5802Z" fill="#717680"/>
<path d="M83.2368 23.9018V47.4334H88.821V40.7177C89.8679 40.9053 90.9302 40.9938 91.9938 40.9821C98.1384 40.9821 101.375 37.4602 101.375 31.5588C101.375 25.6574 98.2019 22.3048 91.6024 22.3048C88.7391 22.3152 85.9026 22.8567 83.2368 23.9018V23.9018ZM91.5601 26.5669C94.0032 26.5669 95.6213 28.0899 95.6213 31.6011C95.6213 35.1124 94.3416 36.8891 91.3275 36.8891C90.4769 36.8877 89.6315 36.7557 88.821 36.4978V27.1063C89.6841 26.7301 90.6188 26.546 91.5601 26.5669" fill="#717680"/>
<path d="M25.619 24.4306V21.6703C24.8843 21.4743 24.1266 21.3782 23.3663 21.3847C20.1406 21.3847 18.5542 23.5634 18.5542 25.7738C18.5542 27.9841 19.3157 29.8667 22.2347 34.3826C23.3992 34.2253 24.5712 34.13 25.7459 34.0971C23.2076 29.3908 22.5731 27.7515 22.5731 26.5246C22.5731 25.1286 23.3769 24.4094 25.0161 24.4094H25.5978" fill="#717680"/>
<path d="M16.8197 28.5552C16.5675 27.7831 16.4043 26.9848 16.3332 26.1756C13.7738 26.0487 11.8066 27.4976 11.8066 29.6128C11.8066 31.2839 12.6527 32.7856 16.2063 35.7681C17.0841 35.472 18.3215 35.1335 19.3791 34.9009C15.9207 31.728 15.3813 30.8185 15.3813 29.8455C15.3813 29.1369 15.8678 28.6716 16.8408 28.5341" fill="#717680"/>
<path d="M27.9876 24.4306V21.6703C28.722 21.4731 29.4799 21.3771 30.2403 21.3847C33.466 21.3847 35.0524 23.5634 35.0524 25.7737C35.0524 27.9841 34.2803 29.8667 31.3719 34.3826C30.2038 34.2253 29.0283 34.13 27.8501 34.0971C30.3883 29.3907 31.0229 27.7515 31.0229 26.5246C31.0229 25.1286 30.2191 24.4094 28.5693 24.4094H27.9982" fill="#717680"/>
<path d="M36.7869 28.5552C37.0356 27.7827 37.1953 26.9843 37.2628 26.1756C39.8328 26.091 41.7682 27.5505 41.7682 29.634C41.7682 31.305 40.9116 32.8068 37.3686 35.7892C36.4802 35.4931 35.2534 35.1547 34.1958 34.922C37.6647 31.7492 38.2041 30.8396 38.2041 29.8666C38.2041 29.1581 37.707 28.6927 36.7446 28.5552" fill="#717680"/>
<path d="M26.8033 39.9773C29.5111 39.9701 32.2052 40.3621 34.7987 41.1407L35.74 38.0736C29.9049 36.3389 23.6911 36.3389 17.856 38.0736L18.7972 41.1724C21.3944 40.3938 24.092 40.0019 26.8033 40.0091" fill="#717680"/>
<path d="M26.8047 14.1373L23.9395 17.0005L26.8027 19.8657L29.6679 17.0025L26.8047 14.1373Z" fill="#717680"/>
</g>
<defs>
<clipPath id="svg-778394681_4839_clip0_23_5761">
<rect width="123.655" height="56" fill="white" transform="translate(0.172852)"/>
</clipPath>
</defs>
</svg>