<svg xmlns="http://www.w3.org/2000/svg" width="114" height="72" viewBox="0 0 114 72" fill="none">
<g clip-path="url(#svg1951522887_5698_clip0_23_5842)">
<path fill-rule="evenodd" clip-rule="evenodd" d="M101.738 0.203552C97.8706 0.203552 94.3084 1.96284 92.2438 4.94346L70.1045 36.6097C70.3066 36.5668 70.5087 36.5525 70.7107 36.5525C71.3795 36.5525 72.0047 36.727 72.5573 37.1486V36.6688H74.0839V42.9354H72.5573V42.4847C71.9757 42.9063 71.3941 43.0953 70.7107 43.0953C69.1114 43.0953 67.7301 41.9612 67.4538 40.4055L70.1001 36.6107C70.1014 36.6104 70.1027 36.6101 70.104 36.6098L68.4863 29.6898C67.2359 24.5719 62.6123 20.7625 57.1018 20.7625C53.7313 20.7625 50.7013 22.1828 48.56 24.4538C48.3341 24.6924 48.1181 24.9404 47.9128 25.1971L47.8946 25.223L47.8691 25.2552L47.8699 25.2583L39.9317 36.5876L39.5377 34.1245L39.5378 34.1244L39.5124 33.9661L39.1307 31.58C38.6218 28.5121 35.9611 26.1567 32.7478 26.1567C31.2502 26.1567 29.869 26.6656 28.7785 27.5235C28.5459 27.7125 28.3132 27.916 28.1097 28.1341L26.4231 29.7771L26.4252 29.7902L11.5479 44.288L10.8804 40.4928C10.386 38.1083 8.27781 36.3054 5.74792 36.3054C2.85454 36.3054 0.513672 38.6462 0.513672 41.5396C0.513672 41.8159 0.528211 42.0776 0.57183 42.3393L2.46691 53.1373L2.46191 53.1422L3.34883 58.2456C3.87225 60.5865 5.96595 62.3457 8.46676 62.3457H8.46849L8.48136 62.3458C9.819 62.3458 11.0549 61.8369 11.9854 61.0081L14.1227 58.929L14.1198 58.9124L28.8262 44.5705L29.8636 50.9568L29.8401 50.9903L30.5233 55.0178C30.9885 57.286 32.457 59.1906 34.4489 60.2229C35.5103 60.7318 36.7171 61.0226 38.0111 61.0226C38.6509 61.0226 39.3052 60.9499 39.9304 60.8045C40.1607 60.7408 40.3869 60.6664 40.6083 60.5818C41.3365 60.3045 42.0111 59.92 42.6126 59.4449C42.9158 59.2067 43.2003 58.9466 43.4635 58.6672L43.4625 58.6609C43.5996 58.5135 43.7309 58.3604 43.8562 58.2019L52.6514 45.7174L55.4287 57.6009L55.415 57.6204L56.5491 62.462C57.6541 67.7835 62.394 71.7964 68.0499 71.7964C70.8871 71.7964 73.4939 70.7877 75.5239 69.1106C76.1719 68.5775 76.7618 67.9764 77.2827 67.3182L77.2809 67.3106C77.3356 67.2411 77.3894 67.1709 77.4425 67.1002L111.538 18.4216C112.948 16.3134 113.486 14.3069 113.486 11.9515C113.486 5.46688 108.223 0.203552 101.738 0.203552ZM53.1614 43.1244C51.2858 43.1244 49.861 41.685 49.861 39.8675C49.861 37.7738 51.4603 36.567 53.1033 36.567C54.8771 36.567 56.2584 38.0065 56.2584 39.8385C56.2584 39.9402 56.2438 40.1438 56.2293 40.3328H51.3585C51.5766 41.2197 52.3327 41.7431 53.2051 41.7577C53.9175 41.7722 54.3828 41.5687 54.9498 41.1179C54.9498 41.1179 55.7204 42.2229 55.7495 42.2666C54.8626 42.9354 54.1356 43.1244 53.1614 43.1244ZM53.0887 37.9338C52.3327 37.9338 51.6929 38.399 51.4312 39.126H54.7172C54.5282 38.5008 53.9175 37.9338 53.0887 37.9338ZM49.3812 41.1325C49.3812 40.1292 48.7414 39.6785 48.0144 39.3877C47.8014 39.3 47.1457 39.0827 46.801 38.9685C46.7457 38.9502 46.6984 38.9345 46.6623 38.9225C46.3715 38.8061 46.1243 38.6753 46.1388 38.3845C46.1534 38.2246 46.2551 37.9192 46.8949 37.9192C47.3456 37.9192 47.9708 38.0792 48.5379 38.4572L49.2939 37.3813C48.4942 36.7124 47.5346 36.5525 46.8803 36.5525C45.5427 36.5525 44.6703 37.3231 44.6703 38.5299C44.6703 39.4604 45.2665 39.9402 45.9207 40.1729C46.1428 40.2597 46.5956 40.3979 46.9514 40.5065C47.1315 40.5614 47.2868 40.6088 47.3747 40.6381C47.6946 40.7399 47.9272 40.9144 47.9272 41.1906C47.9272 41.3215 47.8109 41.7577 47.0257 41.7577C46.6623 41.7577 46.0661 41.7431 45.3246 41.1325L44.5249 42.2666C45.0774 42.7028 45.8335 43.1244 46.9676 43.1244C48.4506 43.1244 49.3812 42.3393 49.3812 41.1325ZM33.5621 36.5525C31.9191 36.5525 30.3198 37.7593 30.3198 39.8675C30.3198 41.685 31.7592 43.1244 33.6203 43.1099C34.6089 43.1099 35.3214 42.9208 36.2083 42.252C36.1792 42.2084 35.4086 41.1034 35.4086 41.1034C34.8416 41.5541 34.3763 41.7577 33.6639 41.7431C32.7915 41.7431 32.0209 41.2052 31.8173 40.3183H36.6881C36.7026 40.1438 36.7172 39.9257 36.7172 39.8239C36.7172 37.9919 35.3359 36.5525 33.5621 36.5525ZM33.5476 37.9338C34.3763 37.9338 34.987 38.5008 35.176 39.126H31.89C32.1518 38.3845 32.7915 37.9338 33.5476 37.9338ZM24.4749 33.6446H26.1033V41.3796H29.9854V42.9354H24.4749V33.6446ZM40.5266 36.5525C40.3375 36.5525 40.134 36.567 39.9304 36.6107L37.2697 40.4055C37.5459 41.9612 38.9272 43.0953 40.5266 43.0953C41.2099 43.0953 41.7915 42.9063 42.3731 42.4847V42.9208H43.8997V36.6688H42.3731V37.1486C41.8206 36.727 41.1954 36.5525 40.5266 36.5525ZM40.5266 38.0065C41.5298 38.0065 42.3731 38.8352 42.3731 39.8239C42.3731 40.8417 41.5443 41.6559 40.5266 41.6559C39.5379 41.6559 38.6946 40.8126 38.6946 39.8239C38.6946 38.8352 39.5379 38.0065 40.5266 38.0065ZM57.029 33.6446H60.344C62.4377 33.6446 63.7899 35.2439 63.7899 36.9887C63.7899 39.1842 62.016 40.3328 60.344 40.3328H58.6574V42.9354H57.029V33.6446ZM58.6574 38.748H60.3149C61.2745 38.748 62.1469 38.0501 62.1324 36.9887C62.1324 36.0145 61.4199 35.2003 60.3149 35.2003H58.6574V38.748ZM80.7866 38.1519C80.4377 37.3522 79.7689 36.7851 78.8529 36.6107C78.3149 36.5089 77.5007 36.5525 76.701 37.1632V36.6834H75.1889V42.9499H76.7156V39.5767C76.7156 38.7334 77.2681 38.0792 78.0968 38.0792C78.9692 38.0792 79.4781 38.7334 79.4781 39.664V42.9499H81.0047V39.853C81.0047 39.0097 80.932 38.5008 80.7866 38.1519ZM70.6962 38.0065C71.6994 38.0065 72.5427 38.8352 72.5427 39.8239C72.5427 40.8417 71.714 41.6559 70.6962 41.6559C69.7075 41.6559 68.8642 40.8126 68.8642 39.8239C68.8642 38.8352 69.7075 38.0065 70.6962 38.0065ZM66.1017 34.1535V40.6381C66.1017 41.2488 66.5379 41.5541 67.0613 41.5541V43.0372C65.1275 43.0372 64.575 41.8158 64.575 40.8271V34.1535H66.1017Z" fill="#717680"/>
</g>
<defs>
<clipPath id="svg1951522887_5698_clip0_23_5842">
<rect width="113.38" height="72" fill="white" transform="translate(0.310059)"/>
</clipPath>
</defs>
</svg>