<svg xmlns="http://www.w3.org/2000/svg" width="176" height="24" viewBox="0 0 176 24" fill="none">
<g clip-path="url(#svg2035095482_7471_clip0_23_5702)">
<path d="M8.95602 0.464844V0.823589L8.37746 0.917081C7.07108 1.10732 6.41384 1.93135 6.41384 3.91424V19.2957C6.41384 21.1797 7.14166 21.9157 9.20364 21.9374C13.257 21.9624 16.9725 19.8665 19.1826 16.0105L19.7345 15.0614L20.2217 15.043L17.057 23.9746L16.7041 23.7811C16.4576 23.6496 16.1602 23.5681 15.8281 23.5431L13.8865 23.5278H0.0439272V23.2441L0.544957 23.1039C1.7958 22.7647 2.25401 22.1809 2.3813 20.5502C2.39518 20.4165 2.40213 20.285 2.40213 20.1513V3.01846C2.40213 1.81938 1.8525 1.16059 0.524129 0.882293L0.00805664 0.776844V0.464844H8.95602" fill="#717680"/>
<path fill-rule="evenodd" clip-rule="evenodd" d="M30.2141 0.0924042C24.6206 0.716404 20.573 3.9886 19.203 8.66534C18.9553 9.48719 18.8223 10.2308 18.7656 10.908C18.6661 12.1158 18.7934 13.4627 19.203 14.976C20.1981 18.6048 22.3816 21.1866 25.7291 22.7521C27.4231 23.5424 29.4157 23.974 31.591 23.974C39.493 23.974 45.2427 18.6243 45.186 12.0821C45.179 11.2983 45.1015 10.5178 44.9383 9.74049C43.9004 4.72457 40.016 1.15994 34.2744 0.204376C33.4968 0.0728362 32.7134 0.00760976 31.922 0C31.3504 0 30.7857 0.0260906 30.2141 0.0924042ZM40.6786 13.2708C40.7573 18.7835 37.1066 22.2025 32.5429 22.0742C27.6495 21.9372 23.2004 17.6094 23.1726 10.7487C23.1576 5.26859 26.35 2.06271 30.8281 1.95074C33.1076 1.89747 35.2413 2.69323 37.3102 4.63916C38.4615 5.71974 39.2808 7.04601 39.9808 9.19088C40.4252 10.5715 40.6589 11.9434 40.6786 13.2708Z" fill="#717680"/>
<path d="M55.6965 0.484872V0.803395L55.435 0.828398C53.7607 1.0219 52.695 2.13728 52.5885 4.06037L52.0944 12.9975C52.0458 13.9335 52.0169 15.0608 52.0239 16.4349C52.0239 16.773 52.0377 17.1057 52.0586 17.4372C52.2495 20.1909 54.588 22.0955 58.6842 21.902C62.5328 21.7237 64.7498 19.7006 64.8991 17.0785C64.9407 16.3632 64.9477 15.6392 64.9199 14.9162L64.5809 6.402C64.567 5.9715 64.545 5.54645 64.5103 5.12247C64.3263 2.42753 63.5638 1.28172 62.2354 0.988203L61.3039 0.78274L61.29 0.451172L69.1364 0.457695L69.1086 0.788175L68.861 0.841444C67.8439 1.05452 67.2075 1.63829 66.968 2.67431C66.9252 2.85912 66.9043 3.0461 66.9113 3.23743L67.3487 16.0838C67.4979 20.3561 64.5103 23.4218 59.1366 23.9327C58.6194 23.9794 58.0976 24.0055 57.5826 23.999C56.7912 23.9936 56.0009 23.9327 55.2233 23.8142C50.088 23.0369 48.048 21.0399 47.8502 17.4633C47.8282 17.1252 47.8282 16.7871 47.8502 16.448L48.4993 4.11364C48.6057 2.00356 47.9416 1.11431 46.4234 0.856663L46.133 0.809917L46.1052 0.484872H55.6965" fill="#717680"/>
<path d="M68.8599 0.464217H77.0661V0.822963L76.572 0.928412C75.7667 1.08822 75.2437 1.70569 75.2437 2.60799C75.2437 2.91238 75.2865 3.2907 75.3918 3.83534L78.7891 20.6877H78.8168L82.8216 3.32983C82.8714 3.13198 82.9003 2.93304 82.9072 2.72758C82.9697 1.69048 82.4964 1.10018 81.5441 0.934935L81.035 0.849053V0.464217L89.2632 0.451172L89.2702 0.875144L88.8189 0.909932C87.8504 0.975158 87.2869 1.56546 87.2869 2.38079C87.2869 2.81346 87.3436 3.3244 87.4836 3.94188L91.3044 20.6877H91.331L95.4064 4.47891C95.5417 3.96036 95.6123 3.38963 95.6054 2.82107C95.5984 1.85789 95.0963 1.2665 93.9739 0.988203L93.3386 0.822963V0.484872H100.564V0.875144L99.992 1.00886C98.7551 1.28716 98.0839 2.10249 97.2936 5.0953L93.1257 20.8279C93.0123 21.2399 92.9695 21.5965 92.9695 21.9085C92.9695 22.4923 93.1558 22.7923 93.8176 23.2772L93.9368 23.362L93.9299 23.5555H87.067V23.2902L87.2499 23.1902C87.4767 23.05 87.6525 22.851 87.7648 22.6119C87.8215 22.4858 87.8574 22.3542 87.8712 22.214C87.8851 22.089 87.8782 21.9553 87.8446 21.8302L84.0782 5.79322H84.0505L80.5687 21.028C80.4703 21.4519 80.4275 21.7628 80.4275 22.0292C80.4206 22.514 80.5756 22.7706 81.0709 23.1174L81.374 23.337L81.3671 23.5555H74.4811V23.2435L74.7773 23.1239C75.2228 22.9576 75.5052 22.5521 75.4982 22.015C75.4982 21.7237 75.4624 21.4247 75.3918 21.0867L75.18 20.1246L71.2181 3.72337C70.724 1.67852 70.1871 1.06865 69.1839 0.881667L68.8599 0.822963V0.464217" fill="#717680"/>
<path d="M100.536 0.458008L109.902 0.46453V0.77653L109.724 0.849367C109.464 0.963513 109.288 1.23529 109.307 1.54729C109.337 1.94408 109.435 2.18977 110.232 3.54974L113.961 9.93976L118.362 3.34428C118.919 2.50286 119.083 2.06258 119.102 1.59295C119.118 1.24725 118.983 0.995039 118.666 0.788489L118.524 0.703694V0.46453L127.508 0.458008L127.501 0.756962L127.275 0.796098C125.516 1.1418 125.028 1.7321 125.028 3.43016V20.2238C125.028 22.0556 125.58 22.8176 127.035 23.2242L127.431 23.3373L127.417 23.5808H118.447V23.2155L118.773 23.1905C119.972 23.0775 120.821 22.261 120.897 21.3316C120.954 20.688 120.976 20.0379 120.976 19.3824L120.996 2.85291L120.968 2.83986L112.854 15.1818L105.352 2.82138L105.326 2.82682L105.373 21.2587C105.373 21.7371 105.642 22.2545 106.257 22.7176C106.512 22.9111 106.836 23.0568 107.31 23.1623L107.811 23.2688L107.825 23.5808L100.536 23.5623V23.2905L101.088 23.1036C102.352 22.6861 102.91 21.923 102.91 20.051V3.23774C102.91 1.83755 102.302 1.10701 100.918 0.863499L100.514 0.788489L100.536 0.458008" fill="#717680"/>
<path fill-rule="evenodd" clip-rule="evenodd" d="M127.873 23.1098L127.436 23.2837L127.429 23.549L134.965 23.5555L134.936 23.1902L134.554 23.137C133.644 22.9978 133.029 22.3271 132.987 21.2997C132.981 20.953 133.022 20.5877 133.177 20.0257C133.234 19.8126 133.305 19.6071 133.383 19.4017L135.721 13.2628L136.977 13.4095C137.501 13.4682 138.023 13.5498 138.531 13.6617C143.108 14.6173 146.279 18.5178 145.89 21.2856C145.75 22.2542 145.248 22.8858 144.584 23.1174L144.103 23.2837L144.112 23.5555H152.557L152.677 23.2304L152.437 23.1902C151.696 23.0772 150.849 22.3075 150.164 20.4224L143.813 3.11134C143.66 2.68628 143.61 2.32754 143.624 2.02424C143.65 1.49373 144.019 1.04149 144.471 0.894731L144.703 0.822982V0.556641H136.441V0.921909L136.8 1.02845C137.246 1.15346 137.558 1.53178 137.528 2.10903C137.521 2.32754 137.478 2.58084 137.379 2.9124L137.232 3.38964L130.486 20.2235C130.402 20.4224 130.31 20.6225 130.213 20.8214C129.499 22.1879 128.933 22.7054 127.873 23.1098ZM140.119 12.1628C139.258 11.8769 138.517 11.7453 137.118 11.6583L136.27 11.6051L139.637 3.13869H139.667L143.772 14.2457L143.748 14.2587L143.34 13.9076C142.562 13.2379 141.412 12.5943 140.119 12.1628Z" fill="#717680"/>
<path d="M162.077 0.464844V0.804021L161.86 0.935561C161.738 1.00188 161.675 1.11493 161.668 1.2356C161.662 1.44759 161.755 1.6324 162.163 2.00962C162.256 2.09768 162.346 2.17704 162.445 2.24987L171.126 9.03125L171.111 3.6305C171.111 2.00419 170.495 1.22147 169.326 0.948607C169.212 0.922516 169.106 0.910558 168.992 0.895338L168.555 0.84968V0.485499H175.992L175.985 0.776844L175.638 0.84968C174.141 1.15407 173.583 1.71284 173.583 3.13913V20.6633C173.583 22.1222 174.241 22.9049 175.434 23.1571L175.935 23.2626V23.5681L168.66 23.5811V23.2441L169.176 23.1506C170.193 22.9778 170.844 22.4081 171.054 21.4786C171.083 21.3525 171.097 21.2253 171.097 21.1003V15.4267C171.097 14.2722 170.778 13.7939 169.196 12.5415L159.161 4.58607L157.418 3.31198L157.437 20.6883C157.437 22.0494 158.158 22.8919 159.431 23.1626L159.896 23.2626L159.903 23.5278L152.601 23.5344V23.2778L153.166 23.0713C154.43 22.6125 154.825 22.1222 154.945 20.6166C154.952 20.4763 154.959 20.3383 154.959 20.198V3.01846C154.959 1.8259 154.296 1.09537 153.031 0.895338L152.552 0.823589L152.522 0.464844H162.077" fill="#717680"/>
</g>
<defs>
<clipPath id="svg2035095482_7471_clip0_23_5702">
<rect width="175.984" height="24" fill="white" transform="translate(0.00805664)"/>
</clipPath>
</defs>
</svg>