<svg xmlns="http://www.w3.org/2000/svg" width="192" height="40" viewBox="0 0 192 40" fill="none">
<g clip-path="url(#svg1940369409_7992_clip0_23_5475)">
<path fill-rule="evenodd" clip-rule="evenodd" d="M68.4408 19.675V26.1524H65.0804V19.6762C65.0804 18.7316 64.9036 18.0433 64.6242 17.6018C64.3316 17.1626 63.8531 16.9456 63.2213 16.9456C62.5725 16.9456 62.0315 17.1781 61.5432 17.6607C61.0431 18.1369 60.8228 18.8369 60.8228 19.7637V26.1524H57.4624V14.315H60.8228V15.6456C61.7192 14.6131 62.7515 14.1011 63.9311 14.1011C64.6814 14.1011 65.3484 14.3184 65.9613 14.7588C66.5689 15.2022 67.0243 15.7377 67.3335 16.3705C67.7874 15.6501 68.3961 15.0905 69.1714 14.6973C69.9463 14.2977 70.7223 14.1011 71.5003 14.1011C72.8983 14.1011 73.9733 14.5154 74.8262 15.3437C75.6852 16.1788 76.0588 17.3758 76.0588 18.9501V26.1524H72.698V19.6762C72.698 17.8565 72.0923 16.9456 70.7579 16.9456C70.0894 16.9456 69.5882 17.1781 69.0995 17.6607C68.6153 18.1369 68.4408 18.8369 68.4408 19.7637" fill="#717680"/>
<path fill-rule="evenodd" clip-rule="evenodd" d="M114.375 19.452V26.1524H111.238V14.315H114.375V15.6184C115.495 14.609 116.553 14.1011 117.808 14.1011C119.06 14.1011 120.102 14.5426 120.949 15.4286C121.797 16.3026 122.217 17.4777 122.217 18.9501V26.1524H118.856V19.4528C118.856 17.6343 118.237 16.7222 116.903 16.7222C116.237 16.7222 115.635 16.9607 115.14 17.4369C114.651 17.9147 114.375 18.6135 114.375 19.5407" fill="#717680"/>
<path fill-rule="evenodd" clip-rule="evenodd" d="M150.47 25.7649C150.086 25.397 149.904 24.9347 149.904 24.3917C149.904 23.8472 150.086 23.3857 150.47 23.014C150.843 22.634 151.302 22.4543 151.847 22.4543C152.395 22.4543 152.849 22.634 153.231 23.014C153.611 23.3857 153.798 23.8472 153.798 24.3917C153.798 24.9347 153.611 25.397 153.231 25.7649C152.849 26.1419 152.395 26.3279 151.847 26.3279C151.302 26.3279 150.843 26.1419 150.47 25.7649" fill="#717680"/>
<path fill-rule="evenodd" clip-rule="evenodd" d="M167.927 19.675V26.1524H164.566V19.6762C164.566 18.7316 164.443 18.0433 164.157 17.6018C163.87 17.1626 163.415 16.9456 162.772 16.9456C162.136 16.9456 161.553 17.1781 161.061 17.6607C160.565 18.1369 160.309 18.8369 160.309 19.7637V26.1524H156.948V14.315H160.309V15.6456C161.205 14.6131 162.285 14.1011 163.463 14.1011C164.218 14.1011 164.9 14.3184 165.516 14.7588C166.134 15.2022 166.596 15.7377 166.9 16.3705C167.359 15.6501 167.975 15.0905 168.747 14.6973C169.522 14.2977 170.304 14.1011 171.083 14.1011C172.481 14.1011 173.625 14.5154 174.477 15.3437C175.329 16.1788 175.769 17.3758 175.769 18.9501V26.1524H172.408V19.6762C172.408 17.8565 171.737 16.9456 170.399 16.9456C169.738 16.9456 169.15 17.1781 168.663 17.6607C168.173 18.1369 167.927 18.8369 167.927 19.7637" fill="#717680"/>
<path fill-rule="evenodd" clip-rule="evenodd" d="M87.358 22.3866C86.8307 22.9605 86.1633 23.2469 85.3706 23.2469C84.5745 23.2469 83.9037 22.9556 83.3472 22.3733C82.7908 21.7956 82.5212 21.0337 82.5212 20.096C82.5212 19.1541 82.8089 18.4122 83.3692 17.8673C83.9397 17.3296 84.6108 17.0556 85.3922 17.0556C86.1701 17.0556 86.8307 17.3296 87.358 17.8673C87.8891 18.4122 88.1568 19.1579 88.1568 20.1073C88.1568 21.0556 87.8891 21.813 87.358 22.3866ZM88.3835 14.3163V15.4646C86.8147 14.4808 86.1489 14.2363 84.7353 14.2363C83.3199 14.2363 81.9965 14.7959 80.8995 15.9212C79.8028 17.0431 79.2202 18.4853 79.2202 20.2397C79.2202 21.9925 79.7354 23.3959 80.8007 24.4434C81.8735 25.4948 83.2544 26.0182 84.8092 26.0182C86.1712 26.0182 87.2629 25.5732 88.3835 24.6816V25.9302H91.5201V14.3163H88.3835Z" fill="#717680"/>
<path fill-rule="evenodd" clip-rule="evenodd" d="M146.295 22.9602C145.933 23.2817 145.522 23.4387 145.055 23.4387C144.733 23.4387 144.38 23.3134 144.148 23.0542C143.913 22.7968 143.728 22.4421 143.728 21.9862V16.9953H146.64V14.3153H143.728V10.7417H140.591V22.1413C140.591 23.436 140.952 24.4572 141.736 25.2025C142.527 25.9545 143.473 26.3281 144.617 26.3281C145.516 26.3281 146.377 26.0326 147.209 25.4477L146.295 22.9602" fill="#717680"/>
<path fill-rule="evenodd" clip-rule="evenodd" d="M133.234 17.3891C132.774 17.0069 132.221 16.8224 131.563 16.8224C130.915 16.8224 130.31 17.0118 129.77 17.4058C129.22 17.8001 128.901 18.3356 128.814 19.0061H134.022C133.949 18.3356 133.691 17.7665 133.234 17.3891ZM136.407 24.416C135.065 25.6782 133.495 26.3077 131.693 26.3077C129.893 26.3077 128.403 25.7582 127.229 24.6492C126.052 23.5409 125.46 22.0545 125.46 20.1941C125.46 18.3284 126.064 16.8526 127.26 15.7545C128.46 14.6507 129.874 14.1009 131.505 14.1009C133.141 14.1009 134.562 14.5937 135.706 15.5767C136.84 16.5571 137.45 17.9084 137.45 19.6247V21.462H128.724C128.83 21.9092 129.172 22.5941 129.741 23.0032C130.317 23.4141 130.966 23.6009 131.688 23.6009C132.848 23.6009 133.803 23.2054 134.551 22.4235L136.407 24.416Z" fill="#717680"/>
<path fill-rule="evenodd" clip-rule="evenodd" d="M186.803 17.3891C186.35 17.0069 185.787 16.8224 185.139 16.8224C184.482 16.8224 183.882 17.0118 183.345 17.4058C182.796 17.8001 182.483 18.3356 182.394 19.0061H187.596C187.531 18.3356 187.259 17.7665 186.803 17.3891ZM189.983 24.416C188.65 25.6782 187.072 26.3077 185.269 26.3077C183.47 26.3077 181.982 25.7582 180.807 24.6492C179.624 23.5409 179.035 22.0545 179.035 20.1941C179.035 18.3284 179.635 16.8526 180.837 15.7545C182.038 14.6507 183.455 14.1009 185.088 14.1009C186.716 14.1009 188.129 14.5937 189.266 15.5767C190.412 16.5571 191.003 17.9084 191.003 19.6247V21.462H182.302C182.412 21.9092 182.75 22.5941 183.321 23.0032C183.893 23.4141 184.543 23.6009 185.26 23.6009C186.423 23.6009 187.381 23.2054 188.135 22.4235L189.983 24.416Z" fill="#717680"/>
<path fill-rule="evenodd" clip-rule="evenodd" d="M103.85 19.9284C103.85 18.9809 103.591 18.2344 103.061 17.6914C102.531 17.1465 101.869 16.8718 101.083 16.8718C100.307 16.8718 99.6351 17.1465 99.0623 17.6914C98.4903 18.2344 98.209 18.9756 98.209 19.9186C98.209 20.8627 98.4903 21.6182 99.0407 22.2031C99.5983 22.7797 100.269 23.0744 101.063 23.0744C101.866 23.0744 102.531 22.7888 103.061 22.2141C103.591 21.6401 103.85 20.8775 103.85 19.9284ZM104.323 24.1109C103.277 25.2694 101.968 25.8521 100.415 25.8521C98.8561 25.8521 97.5447 25.3283 96.475 24.2713C95.4108 23.223 94.8691 21.8151 94.8691 20.0589C94.8691 18.303 95.4173 16.863 96.5215 15.7374C97.6178 14.6136 98.8928 14.054 100.312 14.054C101.726 14.054 102.949 14.6298 103.845 15.7943V14.3151H107.206V24.5736C107.206 25.6283 106.984 26.5713 106.613 27.394C106.245 28.2189 105.732 28.8664 105.114 29.3358C103.889 30.3057 102.432 30.7909 100.768 30.7909C99.8853 30.7909 98.9779 30.6521 98.0539 30.3626C97.1336 30.0743 96.3198 29.6702 95.6247 29.1415L96.9118 26.643C97.9979 27.4668 99.1536 27.877 100.37 27.877C101.59 27.877 102.552 27.5804 103.258 26.9751C103.968 26.3747 104.323 25.4215 104.323 24.1109Z" fill="#717680"/>
<path fill-rule="evenodd" clip-rule="evenodd" d="M38.364 0H3.63713C1.00358 0 0.99707 2.75823 0.99707 2.84264V37.3604C0.99707 39.9431 3.55869 39.9991 3.63782 40H3.63791H38.364C40.96 40 41.0034 37.4032 41.0041 37.3601L41.0041 37.3596V2.84264C41.0041 0.135246 38.4813 0.00616294 38.3661 0.000272675C38.3616 4.12723e-05 38.3608 0 38.364 0ZM7.24707 26.2498H12.2479V31.2498H7.24707V26.2498ZM34.7545 26.2498H29.7536V31.2498H34.7545V26.2498ZM18.5004 26.2498H23.5013V31.2498H18.5004V26.2498ZM23.7458 17.2193C23.7458 17.2193 23.7458 14.405 26.5003 14.405C29.2515 14.405 29.2515 17.2193 29.2515 17.2193V23.75H34.7519V17.2193C34.7519 17.2193 34.7519 8.77816 26.5025 8.77816C26.5025 8.77816 23.3997 8.77669 21.0011 10.7203C18.6013 8.77669 15.5007 8.77208 15.5007 8.77208C13.9441 8.77208 13.2555 9.06036 12.67 9.30544C12.622 9.32555 12.5746 9.34537 12.5276 9.36472C12.4166 8.75907 11.8342 8.75005 11.8342 8.75005H8.16893C7.25138 8.75005 7.24707 9.71758 7.24707 9.71758V23.75H12.7485V17.2193C12.7485 17.2193 12.7485 14.405 15.5007 14.405C18.2476 14.405 18.2476 17.2193 18.2476 17.2193V23.75H23.7458V17.2193Z" fill="#717680"/>
</g>
<defs>
<clipPath id="svg1940369409_7992_clip0_23_5475">
<rect width="190.006" height="40" fill="white" transform="translate(0.99707)"/>
</clipPath>
</defs>
</svg>