<svg xmlns="http://www.w3.org/2000/svg" width="110" height="44" viewBox="0 0 110 44" fill="none">
<g clip-path="url(#svg-1260984287_1737_clip0_23_5439)">
<path fill-rule="evenodd" clip-rule="evenodd" d="M96.3145 11.572C104.368 11.572 109.704 17.1723 109.704 25.6247C109.704 34.0769 104.368 39.7292 96.3145 39.7292C87.9522 39.7292 82.3605 34.0769 82.3605 25.6247C82.3605 17.1723 87.9522 11.572 96.3145 11.572ZM53.3298 12.1393V39.1618L47.3095 37.9241V13.3254L53.3298 12.1393ZM77.4356 11.5116V17.8535L73.9665 18.4964C70.9856 19.0688 69.0687 20.6194 69.0687 24.0506V39.1618L63.0485 37.9241V23.13C63.0485 15.7876 67.3482 13.6034 73.9665 12.0789L77.4356 11.5116ZM13.4592 11.572C15.8218 11.572 18.719 12.8933 20.3524 15.2609C21.9921 13.1048 24.7329 11.69 28.0968 11.6441C32.3309 11.5864 37.5908 14.2536 37.5908 22.247V39.1618L31.5706 37.9241V22.247C31.5706 19.5653 29.6319 17.6572 26.7749 17.6572C23.9177 17.6572 21.9791 19.5653 21.9791 22.247V39.1618L15.959 37.9241V22.247C15.959 19.5653 14.0204 17.6572 11.1634 17.6572C8.25524 17.6572 6.31657 19.5653 6.31657 22.247V39.1618L0.296387 37.9241V13.3254L6.31657 12.1393V14.924C8.00014 12.8612 10.5511 11.572 13.4592 11.572ZM96.3145 17.276C91.6457 17.276 88.5165 20.5947 88.5165 25.6247C88.5165 30.6546 91.6457 34.0251 96.3145 34.0251C100.674 34.0251 103.547 30.6546 103.547 25.6247C103.547 20.5947 100.674 17.276 96.3145 17.276ZM50.4474 0.270813C52.638 0.270813 54.089 1.79392 54.089 4.09284C54.089 6.39163 52.638 7.92892 50.4474 7.92892C48.173 7.92892 46.6524 6.39163 46.6524 4.09284C46.6524 1.79392 48.173 0.270813 50.4474 0.270813Z" fill="#717680"/>
</g>
<defs>
<clipPath id="svg-1260984287_1737_clip0_23_5439">
<rect width="109.407" height="43.4584" fill="white" transform="translate(0.296387 0.270813)"/>
</clipPath>
</defs>
</svg>