<svg xmlns="http://www.w3.org/2000/svg" width="182" height="48" viewBox="0 0 182 48" fill="none">
<g clip-path="url(#svg418107405_47252_clip0_23_5821)">
<path d="M30.8603 36.7757H29.7064V33.5567H30.8603V36.7757ZM36.0988 22.5787H34.9448V19.3596H36.0988V22.5787ZM14.5982 17.0213C14.5071 17.0213 13.915 17.0213 13.915 17.1428C13.915 17.2643 14.1883 17.2035 14.5982 17.2794C15.5245 17.4313 15.8889 17.902 16.5418 17.902C17.134 17.902 17.7413 17.5072 17.4984 16.6417C17.4528 16.505 17.3769 16.5354 17.3617 16.6265C17.2706 17.0061 16.7999 17.2339 16.2988 17.2339C15.6915 17.2339 15.5548 17.0213 14.5982 17.0213ZM8.20576 20.2403C8.31205 20.377 9.4053 21.8043 7.71987 22.3509C7.64395 22.3813 7.61358 22.442 7.73505 22.5027C8.98014 23.019 9.5875 22.0624 9.5875 22.0624C10.2101 23.4897 9.25346 24.2793 9.25346 24.2793C9.39011 24.5374 9.98229 24.9626 10.8781 25.1751C11.2122 24.9929 11.6981 24.6437 11.8955 24.0971C11.8955 24.0971 12.1384 24.7196 11.9107 25.3118C14.4464 25.5396 15.3423 23.5201 17.301 23.8845C17.3617 23.8997 17.3769 23.8541 17.3769 23.7934C17.3769 22.5483 16.6177 20.2555 14.1883 19.7848C11.774 19.3141 12.4269 18.3271 12.4269 18.3271C13.4443 18.2816 14.0364 18.7219 14.0364 18.7219C14.2186 18.4182 13.9605 18.0842 13.9605 18.0842C14.0516 17.9627 14.1123 17.5527 14.1123 17.5527C12.9735 17.5527 12.6699 17.3098 12.6699 17.3098C12.4877 16.6265 12.9735 15.6699 14.6742 16.7024C15.0993 16.3228 15.0689 15.7458 15.0689 15.7458C15.1904 15.6851 15.2815 15.4877 15.2815 15.3966C15.2815 15.1081 13.915 14.3489 13.5657 14.2578C13.4746 13.8478 12.9584 13.2557 11.3489 13.4682C10.5897 13.5593 10.043 13.362 10.3012 12.9216C10.3467 12.8457 10.21 12.8305 10.1341 12.9064C9.95192 13.0886 9.72416 13.5745 10.3771 13.9086C11.1059 14.273 11.1515 15.017 11.1666 15.1233C11.1818 15.2751 10.9844 15.2903 10.9541 15.1385C10.62 13.8934 8.91941 13.6353 7.91726 14.2882C7.978 14.9563 8.69165 15.3966 9.08643 15.3966C9.31419 15.3966 9.61787 15.1689 9.61787 14.8652C9.61787 14.7133 9.69379 14.7285 9.73935 14.85C9.90637 15.2903 9.25345 16.2014 8.28168 15.6547C7.29471 16.6417 7.6895 17.8716 7.7806 18.3119C7.96281 19.1167 7.56803 19.9063 6.83919 19.5419C6.80883 19.5267 6.76327 19.5115 6.76327 19.6026C6.76327 20.1037 7.41619 20.6807 8.20576 20.2403ZM13.6416 15.26C13.1861 15.7762 12.4269 15.6547 12.2447 14.8044C13.2013 14.7589 13.6113 14.85 13.6416 15.26ZM43.0987 17.2339C42.5976 17.2339 42.1269 17.0213 42.0358 16.6265C42.0206 16.5354 41.9295 16.4899 41.8991 16.6417C41.6562 17.492 42.2636 17.902 42.8557 17.902C43.5086 17.902 43.8731 17.4313 44.7993 17.2794C45.2093 17.2035 45.4826 17.2794 45.4826 17.1428C45.4826 17.0213 44.8752 17.0213 44.7993 17.0213C43.8427 17.0213 43.7212 17.2339 43.0987 17.2339ZM52.6494 19.6026C52.6494 19.5115 52.6191 19.5267 52.5735 19.5419C51.8447 19.9063 51.4499 19.1167 51.6321 18.3119C51.7384 17.8564 52.1332 16.6417 51.131 15.6547C50.1593 16.2165 49.5063 15.2903 49.6734 14.85C49.7189 14.7285 49.7948 14.7133 49.7948 14.8652C49.7948 15.1689 50.1137 15.3966 50.3263 15.3966C50.7211 15.3966 51.4347 14.9563 51.4954 14.2882C50.4933 13.6353 48.7927 13.8934 48.4586 15.1385C48.4131 15.2903 48.2309 15.2751 48.2461 15.1233C48.2461 15.017 48.2916 14.273 49.0356 13.9086C49.7037 13.5745 49.4608 13.0886 49.2786 12.9064C49.2027 12.8305 49.066 12.8457 49.1116 12.9216C49.3697 13.362 48.8231 13.5593 48.0639 13.4682C46.4695 13.2557 45.9381 13.8478 45.847 14.2578C45.4978 14.3489 44.1312 15.1081 44.1312 15.3966C44.1312 15.4877 44.2071 15.6851 44.3438 15.7458C44.3438 15.7458 44.3134 16.3228 44.7386 16.7024C46.4392 15.6699 46.9099 16.6417 46.7428 17.3098C46.7428 17.3098 46.4392 17.5527 45.3004 17.5527C45.3004 17.5527 45.3611 17.9627 45.4522 18.0842C45.4522 18.0842 45.1941 18.4182 45.3763 18.7219C45.3763 18.7219 45.9685 18.2816 46.9858 18.3271C46.9858 18.3271 47.6387 19.3141 45.2244 19.7848C42.8102 20.2555 42.0358 22.5331 42.0358 23.7934C42.0358 23.8541 42.0662 23.8845 42.1117 23.8845C44.0705 23.5201 44.9663 25.5547 47.5021 25.3118C47.2743 24.7196 47.5172 24.0971 47.5172 24.0971C47.7146 24.6285 48.2005 24.9929 48.5346 25.1751C49.4304 24.9777 50.0226 24.5374 50.1593 24.2793C50.1593 24.2793 49.2027 23.4897 49.8252 22.0624C49.8252 22.0624 50.4326 23.019 51.6777 22.5027C51.7839 22.4572 51.7688 22.3813 51.6928 22.3509C50.0074 21.8043 51.1007 20.3922 51.207 20.2403C51.9965 20.6807 52.6494 20.1037 52.6494 19.6026ZM47.1528 14.8044C46.9706 15.6547 46.2114 15.7762 45.7559 15.26C45.8014 14.85 46.2114 14.7589 47.1528 14.8044ZM29.266 0.546626C29.266 0.759203 29.3571 0.941408 29.433 1.0477C29.5849 1.26027 29.5545 1.38175 29.4938 1.44248C29.4179 1.51841 29.3116 1.53359 29.099 1.38175C28.9927 1.30583 28.8105 1.21472 28.5979 1.21472C28.2335 1.21472 28.0513 1.45767 28.0513 1.65506C28.0513 1.86764 28.2335 2.09539 28.5979 2.09539C28.8105 2.09539 28.9927 2.00429 29.099 1.92837C29.3116 1.77653 29.433 1.8069 29.4938 1.86764C29.5697 1.94356 29.4634 2.67239 29.3723 3.24938C28.7649 3.37086 28.4764 3.85675 28.4764 4.14524C28.4764 4.87408 29.2508 5.29923 29.7215 5.54217C30.1771 5.29923 30.9666 4.87408 30.9666 4.14524C30.9666 3.85675 30.6781 3.37086 30.0708 3.24938C29.9949 2.67239 29.8886 1.92837 29.9493 1.86764C30.0252 1.79172 30.1315 1.77653 30.3441 1.92837C30.4504 2.00429 30.6326 2.09539 30.8452 2.09539C31.2096 2.09539 31.3918 1.85245 31.3918 1.65506C31.3918 1.44248 31.2096 1.21472 30.8452 1.21472C30.6326 1.21472 30.4504 1.30583 30.3441 1.38175C30.1315 1.53359 30.01 1.50322 29.9493 1.44248C29.8734 1.36656 29.8582 1.26027 30.01 1.0477C30.086 0.941408 30.1771 0.759203 30.1771 0.546626C30.1771 0.182209 29.9341 0 29.7367 0C29.4938 0 29.266 0.182209 29.266 0.546626ZM29.7064 5.96733C29.2205 5.96733 28.8105 6.36211 28.8105 6.86319C28.8105 7.34908 29.2053 7.75904 29.7064 7.75904C30.1922 7.75904 30.6022 7.36426 30.6022 6.86319C30.6022 6.36211 30.1922 5.96733 29.7064 5.96733ZM29.7064 14.5159C33.2746 14.5159 35.2789 15.1992 35.2789 15.1992C35.2941 13.4075 35.2789 12.3902 36.3114 12.542C35.7496 11.0236 38.179 10.4314 38.179 8.47269C38.179 7.18205 37.268 7.03021 36.9947 7.03021C36.1899 7.03021 36.3114 7.56165 35.6281 7.56165C35.537 7.56165 35.4611 7.54646 35.4611 7.6072C35.4611 7.83496 35.6585 8.21456 35.9622 8.21456C36.3873 8.21456 36.3873 7.78941 36.7062 7.78941C36.8429 7.78941 37.0402 7.8957 37.0402 8.33603C37.0402 9.17116 36.4936 10.0974 35.8407 10.8262C35.6889 10.6136 35.4915 10.4922 35.2485 10.4922C34.8689 10.4922 34.5349 10.887 34.5349 11.388C34.5349 11.5702 34.5652 11.7069 34.626 11.8587C34.4134 11.9802 34.216 12.0409 34.0794 12.0409C33.7909 12.0409 33.3505 11.9195 33.3505 11.2817C33.3505 9.85444 35.2637 8.59416 35.2637 6.78726C35.2637 5.92177 34.6867 5.05628 33.4872 5.05628C32.1965 5.05628 32.4395 6.24064 31.3159 6.24064C31.2703 6.24064 31.2248 6.25582 31.2248 6.30137C31.2248 6.37729 31.4222 7.03021 31.9991 7.03021C32.6217 7.03021 32.7887 5.95214 33.3353 5.95214C33.5479 5.95214 33.8516 6.07361 33.8516 6.80245C33.8516 7.36426 33.5783 8.2753 33.1683 9.15597C33.0165 9.00413 32.8191 8.89785 32.6065 8.89785C32.1206 8.89785 31.7866 9.36855 31.7866 9.91518C31.7866 10.2644 31.9232 10.5985 32.1662 10.8262C31.8777 11.1906 31.5892 11.4791 31.2096 11.4791C30.4352 11.4791 30.1011 11.0388 30.1011 10.5681C30.1011 10.0518 31.0425 9.86962 31.0425 9.04969C31.0425 8.50306 30.6933 8.1842 30.3441 8.1842C29.9797 8.1842 29.7823 8.42714 29.7519 8.42714C29.7064 8.42714 29.5241 8.1842 29.1597 8.1842C28.8105 8.1842 28.4613 8.48788 28.4613 9.04969C28.4613 9.85444 29.4027 10.0518 29.4027 10.5681C29.4027 11.0388 29.0686 11.4791 28.2942 11.4791C27.8995 11.4791 27.611 11.1906 27.3376 10.8262C27.5806 10.5985 27.7172 10.2644 27.7172 9.91518C27.7172 9.35337 27.368 8.89785 26.8973 8.89785C26.6695 8.89785 26.4722 9.00413 26.3355 9.15597C25.9407 8.2753 25.6522 7.36426 25.6522 6.80245C25.6522 6.07361 25.9559 5.95214 26.1685 5.95214C26.7151 5.95214 26.8973 7.03021 27.5047 7.03021C28.0817 7.03021 28.2791 6.37729 28.2791 6.30137C28.2791 6.25582 28.2335 6.24064 28.188 6.24064C27.0643 6.24064 27.3073 5.05628 26.0166 5.05628C24.8171 5.05628 24.2401 5.92177 24.2401 6.78726C24.2401 8.59416 26.1533 9.85444 26.1533 11.2817C26.1533 11.9195 25.713 12.0409 25.4245 12.0409C25.2726 12.0409 25.0904 11.965 24.8778 11.8587C24.9386 11.7069 24.9689 11.5702 24.9689 11.388C24.9689 10.887 24.6349 10.4922 24.2553 10.4922C24.0123 10.4922 23.8149 10.6136 23.6631 10.8262C23.0102 10.1126 22.4636 9.17116 22.4636 8.33603C22.4636 7.91088 22.661 7.78941 22.7976 7.78941C23.1165 7.78941 23.1165 8.21456 23.5416 8.21456C23.8605 8.21456 24.0427 7.81978 24.0427 7.6072C24.0427 7.54646 23.9516 7.56165 23.8757 7.56165C23.1924 7.56165 23.3139 7.03021 22.5091 7.03021C22.2358 7.03021 21.3248 7.18205 21.3248 8.47269C21.3248 10.4466 23.7542 11.0388 23.1924 12.542C24.2249 12.3902 24.2097 13.3923 24.2249 15.1992C24.1338 15.1992 26.1381 14.5159 29.7064 14.5159ZM23.1772 17.1731C22.2054 17.3857 21.507 17.5831 21.2033 17.6742C21.2185 17.2491 21.3855 16.8543 21.7651 16.7632C21.8107 16.748 21.8258 16.6873 21.7803 16.6569C20.9148 16.0799 20.4593 17.1883 20.4441 17.2187C20.1404 17.1883 19.6697 17.2946 19.6697 17.7046C19.6697 18.9497 16.8455 19.633 16.1774 19.7241C17.3314 20.1644 17.8173 21.6221 17.8173 21.6221C18.6524 20.7869 19.6393 20.0429 19.8519 20.0429C20.0797 20.0429 20.1556 20.3162 20.1708 20.4833C20.1708 20.544 20.2315 20.5592 20.2619 20.5136C20.7022 19.8607 20.4896 19.7089 20.4593 19.5115C20.4289 19.3596 20.4745 18.7827 21.1122 18.8586V27.1187L20.7781 27.1794C20.6263 27.2098 19.4268 26.1773 18.0298 25.2207C16.6481 24.2641 15.9041 24.8411 14.3249 25.6914C12.2599 26.815 10.1797 25.7977 10.1797 25.7977C8.40315 27.0731 7.79579 30.7477 7.79579 30.7477C7.44655 30.8995 6.85438 31.0665 6.29257 31.0665C4.94119 31.0665 4.68306 30.2466 4.68306 29.7455C4.68306 27.6501 7.3099 26.7543 7.3099 24.6892C7.3099 24.1882 7.08214 22.1535 4.56159 22.1535C4.24272 22.1535 2.31435 22.1535 2.29917 22.1535C1.35776 22.1535 1.11481 21.4702 0.993338 21.2121C0.947786 21.121 0.856682 21.1817 0.88705 21.2577C0.96297 21.4247 0.780762 21.698 0.780762 22.2142C0.780762 23.0494 1.26665 23.5504 2.19288 23.5504C2.61803 23.5504 2.99763 23.429 3.13429 23.353C3.22539 23.3075 3.27094 23.3834 3.22539 23.429C2.83061 23.8997 2.80024 24.7652 2.95208 24.9777C2.99763 25.0233 3.04318 25.0081 3.04318 24.9777C3.27094 24.0971 4.09088 23.2468 5.2145 23.2468C6.58106 23.2468 6.58106 24.4159 6.58106 24.6892C6.58106 26.3747 3.62018 27.6046 3.62018 29.9126C3.62018 32.2661 6.09518 32.7672 7.53766 32.3876C7.44655 34.7411 4.75898 35.5306 4.68306 33.8604C4.68306 33.7845 4.62232 33.7541 4.57677 33.8604C4.24272 34.6955 4.36419 35.4244 5.41189 35.6521C5.48781 35.6673 5.44226 35.7129 5.38153 35.7584C4.36419 36.4417 4.926 39.0382 4.97156 39.7974C5.04748 40.8906 3.95423 40.7691 3.86312 40.7388C3.81757 40.7236 3.77202 40.7388 3.84794 40.8299C4.62232 41.7713 5.57892 40.9058 5.57892 40.9058C6.30775 41.1336 5.85223 41.7561 5.36634 42.075C5.29042 42.1205 5.29042 42.1813 5.38153 42.1813C5.48781 42.1813 6.61143 42.2875 6.80883 41.3917C7.3099 41.9839 8.03873 41.7713 8.19057 41.6954C8.40315 41.5891 9.45085 41.2095 9.55714 42.3787C9.55714 42.4698 9.61787 42.409 9.64824 42.3635C10.4378 41.3613 9.5875 40.754 9.1168 40.678C9.16235 40.6173 9.7849 40.101 10.3619 40.8299C10.4074 40.8754 10.4378 40.8906 10.4378 40.7843C10.4985 39.5241 9.48122 39.4026 8.81312 39.9492C8.78275 39.8125 8.55499 39.1141 9.55714 39.1293C9.5875 39.1293 9.63306 39.0989 9.57232 39.0382C8.79793 38.2182 8.14502 38.9622 8.00836 39.1445C7.65913 39.5544 6.79364 39.3874 6.71772 39.3874C6.99103 34.9992 10.8478 36.548 11.3792 34.4222C11.4096 34.3159 11.4551 34.3463 11.4703 34.3918C11.6222 34.9081 12.928 34.984 13.1709 33.9667C13.1861 33.906 13.1709 33.8604 13.1254 33.906C12.0018 35.0296 9.48122 31.5372 12.928 28.6978C15.8585 26.2836 18.5005 27.6198 19.4875 28.4245C19.5331 28.7737 19.3357 28.8952 19.199 28.9256C19.1534 28.9408 19.1383 28.9863 19.2142 29.0167C19.4875 29.123 19.8823 29.0926 20.0797 28.8345C20.7174 29.2748 20.1708 29.8366 19.9127 29.9885C19.8519 30.034 19.8823 30.0644 19.9278 30.0796C20.5048 30.1859 20.9755 29.5937 21.0059 29.2596L21.097 29.3204V31.8106C21.097 35.3636 25.1967 35.8495 29.6912 38.856C34.1856 35.8495 38.2853 35.3484 38.2853 31.8106V29.3204L38.3764 29.2596C38.4068 29.5937 38.8775 30.1859 39.4545 30.0796C39.5152 30.0644 39.5304 30.034 39.4697 29.9885C39.2116 29.8366 38.6801 29.2748 39.3027 28.8345C39.4849 29.0926 39.8797 29.123 40.1682 29.0167C40.2441 28.9863 40.2289 28.9408 40.1833 28.9256C40.0467 28.88 39.8341 28.7737 39.8948 28.4245C40.897 27.6349 43.5238 26.2836 46.4543 28.6978C49.8859 31.5372 47.3654 35.0296 46.257 33.906C46.2114 33.8604 46.1962 33.906 46.2114 33.9667C46.4543 34.9992 47.7602 34.9233 47.912 34.3918C47.9272 34.3463 47.9728 34.3159 48.0031 34.4222C48.5346 36.548 52.4065 34.9992 52.6646 39.3874C52.5887 39.4026 51.7232 39.5544 51.374 39.1445C51.2221 38.9622 50.5844 38.2182 49.81 39.0382C49.7645 39.0837 49.81 39.1293 49.8252 39.1293C50.8274 39.0989 50.6148 39.8125 50.5692 39.9492C49.9011 39.4026 48.8838 39.5089 48.9445 40.7843C48.9445 40.8906 48.9901 40.8754 49.0205 40.8299C49.5974 40.101 50.22 40.6325 50.2655 40.678C49.7948 40.754 48.9445 41.3613 49.7341 42.3635C49.7645 42.409 49.81 42.4698 49.8252 42.3787C49.9315 41.1943 50.9792 41.5891 51.1918 41.6954C51.3436 41.7713 52.0724 41.9839 52.5735 41.3917C52.7709 42.2875 53.8945 42.1813 54.0008 42.1813C54.0767 42.1813 54.0919 42.1205 54.016 42.075C53.5301 41.7561 53.0898 41.1336 53.8034 40.9058C53.8034 40.9058 54.76 41.7713 55.5344 40.8299C55.5951 40.7388 55.5648 40.7236 55.5192 40.7388C55.4281 40.7691 54.3349 40.9058 54.4108 39.7974C54.4563 39.0382 55.0181 36.4417 53.9856 35.7888C53.9249 35.7432 53.8793 35.7129 53.9553 35.6825C55.003 35.4547 55.1396 34.7259 54.7904 33.8908C54.7448 33.7845 54.6841 33.7997 54.6841 33.8908C54.6082 35.5762 51.9206 34.7714 51.8295 32.4179C53.272 32.7823 55.747 32.2813 55.747 29.9429C55.747 27.6349 52.7861 26.3899 52.7861 24.7196C52.7861 24.4311 52.7861 23.2771 54.1527 23.2771C55.2763 23.2771 56.0962 24.1122 56.324 25.0081C56.3392 25.0537 56.3847 25.0688 56.4151 25.0081C56.5821 24.7955 56.5517 23.9149 56.1418 23.4593C56.0962 23.4138 56.1418 23.3379 56.2329 23.3834C56.3543 23.4593 56.7491 23.5808 57.1743 23.5808C58.0853 23.5808 58.5864 23.0797 58.5864 22.2446C58.5864 21.7132 58.4042 21.455 58.4801 21.288C58.5105 21.2121 58.4194 21.1514 58.3738 21.2577C58.2372 21.5158 58.0094 22.1991 57.068 22.1991C57.0528 22.1991 55.1396 22.1991 54.8056 22.1991C52.285 22.1991 52.0573 24.2337 52.0573 24.7348C52.0573 26.7998 54.6841 27.6957 54.6841 29.7911C54.6841 30.277 54.4412 31.1121 53.0746 31.1121C52.5128 31.1121 51.9358 30.9603 51.5714 30.7932C51.5714 30.7932 50.964 27.1187 49.1875 25.8432C49.1875 25.8432 47.1073 26.8606 45.0422 25.7369C43.4631 24.8866 42.7191 24.3096 41.3373 25.2662C39.9556 26.2228 38.7409 27.2554 38.6042 27.225L38.2702 27.1642V18.9041C38.9079 18.8434 38.9534 19.4052 38.9231 19.557C38.8927 19.7544 38.6801 19.9063 39.1205 20.5592C39.1508 20.6047 39.2116 20.5896 39.2116 20.5288C39.2267 20.3618 39.3179 20.0885 39.5304 20.0885C39.743 20.0885 40.73 20.8325 41.5651 21.6676C41.5651 21.6676 42.051 20.21 43.205 19.7696C42.5521 19.6633 39.7126 18.98 39.7126 17.7501C39.7126 17.3402 39.2419 17.2339 38.9383 17.2643C38.9231 17.2339 38.4675 16.1254 37.6021 16.7024C37.5565 16.7328 37.5717 16.7935 37.6172 16.8087C37.9968 16.8998 38.1639 17.2946 38.179 17.7198C37.3591 17.4616 33.8364 16.4747 29.676 16.4747C27.6565 16.4747 25.7889 16.7024 24.3008 16.9758V19.8455H23.1772V17.1731ZM15.4941 46.5087C15.1904 46.3872 14.9778 46.1898 14.9778 45.7799V44.0033C14.4616 43.8211 13.0798 43.2897 10.3012 43.2897C7.99318 43.2897 7.26435 43.8059 7.23398 43.9882L6.62662 47.3742C6.62662 47.3742 7.56803 46.5239 10.9085 46.7365C14.9475 46.9946 19.1231 49.3785 19.1231 46.8428V45.3547C15.9496 45.3547 15.4941 46.3569 15.4941 46.5087ZM40.3048 45.3547V46.8428C40.3048 49.3785 44.4804 46.9946 48.5194 46.7365C51.8599 46.5239 52.8013 47.3742 52.8013 47.3742L52.1939 43.9882C52.1636 43.8059 51.4347 43.2897 49.1267 43.2897C46.3481 43.2897 44.9511 43.8211 44.4501 44.0033V45.7799C44.4501 46.1898 44.2527 46.3872 43.9338 46.5087C43.9186 46.3569 43.4631 45.3547 40.3048 45.3547ZM29.7064 43.8211C36.2051 43.8211 42.795 44.1552 43.6605 45.1421C43.7364 45.2181 43.7516 45.1421 43.7516 45.0814V41.6346C43.7516 40.6325 36.9491 40.0403 29.7064 40.0403C22.4636 40.0403 15.6611 40.6173 15.6611 41.6346V45.0814C15.6611 45.1421 15.6915 45.2181 15.7522 45.1421C16.6177 44.1552 23.2076 43.8211 29.7064 43.8211ZM23.9212 27.5894L23.2683 27.4224L23.2076 27.4983L22.4484 27.1642C22.4484 27.1642 23.0102 27.1642 23.1317 27.1642C23.1924 27.1642 23.1924 27.1187 23.162 27.0883C22.8584 26.7846 22.585 26.5113 22.585 26.5113C22.585 26.5113 22.8887 26.6328 23.3442 26.7846C23.3898 26.7998 23.4202 26.7695 23.3898 26.7391C23.1772 26.4202 22.8887 26.0103 22.8887 26.0103C22.8887 26.0103 23.4961 26.4202 23.6327 26.5113C23.6783 26.5417 23.7087 26.5113 23.6935 26.4658C23.5265 26.0558 23.3442 25.6003 23.3442 25.6003L24.0123 26.238C24.0427 26.2684 24.0731 26.2532 24.0731 26.2076C24.0123 25.904 23.8909 25.3422 23.8909 25.3422L24.3919 26.071C24.4223 26.1165 24.4527 26.1014 24.4527 26.0558C24.4527 25.9192 24.4679 25.2662 24.4679 25.2662C24.4679 25.2662 24.6804 25.7369 24.7867 25.9951C24.8019 26.0406 24.8475 26.0406 24.8778 25.9799C24.9082 25.904 25.136 25.3725 25.136 25.3725L25.1663 26.1925L25.06 26.2076L24.9234 27.1946C25.9103 26.9669 27.1251 25.2814 28.0665 25.2814C29.1749 25.2814 29.5849 26.5873 31.6499 25.9192C32.1662 26.6935 32.3484 27.3616 32.5458 28.2879C33.3353 29.0319 34.459 28.7889 34.459 27.9994C34.459 26.9365 33.2898 26.7239 33.2898 25.6155C33.2898 25.1144 33.639 24.4008 34.5956 24.4008C35.0967 24.4008 35.8407 24.6133 36.2659 24.6133C36.7669 24.6133 36.8732 24.2489 36.934 24.0971C36.9795 23.9908 37.1162 24.0211 37.101 24.1122C37.0858 24.2185 37.1617 24.3552 37.1617 24.5981C37.1617 25.2966 36.1292 25.3877 36.0077 25.3118C35.9622 25.2814 35.9166 25.327 35.9622 25.3573C36.114 25.4788 36.0837 25.904 35.9014 26.1621C35.8863 26.1925 35.8559 26.1925 35.8407 26.1621C35.7344 25.661 35.1422 25.0385 34.6108 25.0385C34.4134 25.0385 34.0338 25.1448 34.0338 25.6003C34.0338 26.238 35.3093 26.815 35.3093 28.1208C35.3093 29.4874 33.9579 29.8063 32.5913 29.4722C32.6369 30.7629 34.5652 31.5372 34.6108 30.611C34.6108 30.5503 34.6412 30.5807 34.6715 30.611C34.96 31.0058 34.8234 31.3095 34.459 31.4613C34.793 31.6132 34.8537 32.2964 34.96 32.6912C35.1119 33.2986 35.7496 32.9645 35.78 32.9494C35.8103 32.9342 35.8255 32.9494 35.8103 32.9797C35.5674 33.6175 34.9145 33.3745 34.9145 33.3745C34.5804 33.6175 34.9904 33.83 35.2941 33.9211C35.3396 33.9363 35.3396 33.9667 35.2941 33.9819C35.0663 34.0578 34.5804 34.2096 34.3527 33.8149C34.1856 34.24 33.8212 34.2248 33.6846 34.2248C33.4416 34.2248 33.2746 34.483 33.3353 34.817C33.3353 34.8474 33.3202 34.8626 33.2898 34.8322C32.6976 34.4374 33.0317 33.9819 33.2746 33.8604C33.2291 33.83 32.8191 33.663 32.6521 34.1489C32.6369 34.1793 32.6217 34.1945 32.6065 34.1489C32.3484 33.4656 32.9102 33.253 33.3202 33.4353C33.2898 33.3442 33.0772 32.9949 32.5458 33.1164C32.5154 33.1164 32.5002 33.1164 32.5154 33.086C32.6065 32.8734 32.8646 32.5698 33.3505 32.8734C33.5935 33.0253 34.0338 32.7975 34.0642 32.7823C33.1987 31.0665 31.5284 32.509 31.1488 31.1576C31.1488 31.1273 31.1033 31.1121 31.0881 31.1728C30.997 31.4613 30.2682 31.4765 30.1315 30.9147C30.1163 30.8692 30.1315 30.8691 30.1619 30.8995C30.2682 31.0058 30.4959 31.1121 30.7996 30.6718C30.997 30.3833 31.0274 30.0037 31.0274 29.7303C31.0274 28.6826 29.9797 26.9365 28.355 26.9365C27.3225 26.9365 26.214 27.3313 25.3941 27.9386L26.1533 28.1208C26.0774 28.8952 25.3334 29.3507 24.6501 29.1534L24.7715 28.2727C24.6501 28.303 24.3464 28.4093 24.1946 28.6371C24.1794 28.6523 24.1642 28.6523 24.149 28.6371C24.0123 28.136 24.4223 27.8779 24.559 27.8172C24.5742 27.802 24.5742 27.802 24.5438 27.802C24.1794 27.7868 23.9668 28.0601 23.9061 28.1512C23.8909 28.1664 23.8757 28.1664 23.8757 28.1512C23.7998 28.0297 23.739 27.7716 23.9212 27.5894ZM26.1837 33.5567C25.8952 33.9211 25.637 33.5719 25.2422 33.5719C24.8778 33.5719 24.8171 33.8756 24.8171 33.9971C24.8171 34.0122 24.8019 34.0274 24.7867 33.9971C24.3768 33.4353 24.8323 33.1316 25.1056 33.086C25.06 33.0405 24.6653 32.7823 24.4071 33.1468C24.3919 33.1771 24.3616 33.1619 24.3616 33.1316C24.3464 32.4331 24.893 32.3876 25.2574 32.6912C25.3182 32.4331 25.1511 32.2509 24.8626 32.2357C24.8323 32.2357 24.8171 32.2053 24.8323 32.1902C24.9538 32.0535 25.0752 31.9928 25.1967 31.9928C25.5763 31.9928 25.637 32.4787 25.88 32.4787C26.2596 32.4787 26.791 31.9624 26.8518 31.9169C26.8366 31.8865 26.4722 30.9147 26.5481 30.3225C26.5481 30.2922 26.5329 30.2922 26.5177 30.3073C26.3355 30.4136 25.8648 30.4136 25.8648 29.8366C25.8648 29.7911 25.88 29.7911 25.9103 29.8215C26.1077 30.1099 26.4418 29.7911 26.6088 29.5937C26.791 29.3963 27.7476 28.0146 29.0079 28.0146C29.2812 28.0146 29.6456 28.1664 29.9341 28.3638C29.4938 28.8952 29.9341 29.4115 30.253 29.3507C30.2985 29.3507 30.2985 29.3811 30.2682 29.3963C28.5827 30.034 27.8387 30.277 27.8387 31.6891C27.8387 32.4179 28.0968 32.8279 28.522 32.7368C28.5524 32.7216 28.5676 32.7368 28.5372 32.7672C28.3853 32.9494 28.2031 33.0101 28.0513 33.0101C27.7021 33.0101 27.6413 32.8127 27.4591 32.8127C27.2617 32.8127 26.6392 33.1771 26.6392 33.496C26.6392 33.6175 26.7151 33.7693 26.9277 33.9211C26.9429 33.9363 26.9277 33.9363 26.9277 33.9515C26.791 33.9971 26.3051 34.0274 26.1837 33.5567ZM30.6174 19.8759C30.086 19.8455 29.7519 19.967 29.7671 20.134C30.0252 20.4073 30.3593 20.377 30.6174 19.8759ZM28.6738 21.1817C29.0383 21.0906 29.4482 21.1362 29.4938 21.1514C29.5545 21.1666 29.5545 21.2577 29.4786 21.2728C28.7042 21.3791 28.6738 21.7284 28.1728 21.7284C27.8539 21.7284 27.4895 21.3943 27.6261 20.9236C27.6413 20.8629 27.6869 20.8629 27.7021 20.9236C27.7628 21.1058 28.0665 21.3336 28.6738 21.1817ZM18.622 38.3397C19.1383 38.9926 19.6242 38.3852 20.2923 38.3852C20.6263 38.3852 21.0211 38.4915 21.097 39.1596C21.097 39.19 21.1274 39.2052 21.1577 39.1596C21.8866 38.1575 21.0515 37.5957 20.5807 37.5198C20.687 37.4287 21.4007 36.9883 21.8562 37.6412C21.8866 37.6716 21.9321 37.6716 21.9321 37.6109C21.9321 36.3506 20.9755 36.2595 20.2923 36.8061C20.1556 36.305 20.5352 35.9862 21.0211 35.9862C21.0818 35.9862 21.097 35.9406 21.0666 35.9102C20.2163 34.9992 19.5786 36.138 19.4419 36.3202C19.1079 36.7757 17.8932 35.9254 17.4073 35.4244C17.4073 35.4244 18.4854 34.3007 18.4854 33.2682C18.4854 33.2075 18.4854 33.1164 18.4854 33.086C18.4854 33.0557 18.5005 33.0405 18.5309 33.0557C18.6372 33.1164 18.789 33.1619 18.9257 33.1619C19.1686 33.1619 19.6393 33.086 19.6393 32.2205C19.6393 32.1598 19.609 32.1598 19.5786 32.1902C19.4571 32.3724 19.3053 32.4179 19.199 32.4179C18.3335 32.4179 16.5266 29.533 14.4008 29.533C13.839 29.533 12.7913 29.9277 12.2599 30.5047C12.518 30.6566 12.5636 30.9754 12.5332 31.2032C12.4877 31.5676 12.1992 31.7498 11.9107 31.8409C11.8651 31.8561 11.8499 31.8865 11.9107 31.9169C12.9887 32.3268 14.9475 33.0708 15.3878 33.4504C15.9192 33.906 15.813 34.7714 15.5093 35.9558C15.2208 37.0946 14.5831 36.9428 14.3553 36.8972C14.3249 36.8972 14.3097 36.9124 14.3249 36.9428C14.5982 37.292 14.9475 37.4135 15.236 37.4135C15.7978 37.4135 16.0104 37.0642 16.2988 37.0642C16.7847 37.0642 17.8021 37.7627 17.8021 38.2941C17.8021 38.5978 17.5743 38.856 17.2706 39.0533C17.2554 39.0685 17.2554 39.0837 17.2858 39.0989C17.4832 39.1141 18.4398 39.19 18.622 38.3397ZM42.1573 39.0837C42.1876 39.0837 42.1876 39.0533 42.1724 39.0382C41.8688 38.8408 41.641 38.5675 41.641 38.279C41.641 37.7475 42.6583 37.0491 43.1442 37.0491C43.4327 37.0491 43.6453 37.3983 44.2071 37.3983C44.4956 37.3983 44.8297 37.2768 45.1182 36.9276C45.1333 36.8972 45.1333 36.882 45.0878 36.882C44.86 36.9124 44.2223 37.0794 43.9338 35.9406C43.6301 34.7563 43.5238 33.8908 44.0553 33.4353C44.4956 33.0557 46.4544 32.3116 47.5324 31.9017C47.5932 31.8713 47.578 31.8409 47.5324 31.8257C47.2287 31.7498 46.9402 31.5676 46.9099 31.188C46.8795 30.9603 46.9251 30.6414 47.1832 30.4895C46.6517 29.9126 45.604 29.5178 45.0422 29.5178C42.9165 29.5178 41.1096 32.4027 40.2441 32.4027C40.1378 32.4027 40.0011 32.3572 39.8645 32.175C39.8341 32.1294 39.8037 32.1294 39.8037 32.2053C39.8037 33.0708 40.2593 33.1468 40.5174 33.1468C40.654 33.1468 40.8059 33.1012 40.9122 33.0405C40.9425 33.0253 40.9577 33.0405 40.9577 33.0708C40.9577 33.1012 40.9577 33.1923 40.9577 33.253C40.9577 34.2856 42.0358 35.4092 42.0358 35.4092C41.5499 35.9103 40.3352 36.7606 40.0011 36.305C39.8493 36.1228 39.2267 34.984 38.3764 35.8951C38.3461 35.9254 38.3613 35.971 38.422 35.971C38.8927 35.971 39.2723 36.2899 39.1508 36.7909C38.4675 36.2443 37.5109 36.3354 37.5109 37.5957C37.5109 37.6412 37.5565 37.6564 37.5869 37.626C38.0424 36.9731 38.756 37.4135 38.8623 37.5046C38.3764 37.5805 37.5413 38.1423 38.2853 39.1445C38.3157 39.19 38.3461 39.1748 38.3461 39.1445C38.422 38.4915 38.8168 38.3701 39.1508 38.3701C39.8189 38.3701 40.32 38.9926 40.8211 38.3245C40.9729 39.19 41.9295 39.1141 42.1573 39.0837ZM24.9234 22.4268C24.8626 22.5179 24.6349 22.4268 24.5438 22.3813C24.5286 22.3661 24.5134 22.3813 24.5286 22.3965C24.5893 22.5179 24.8019 22.8823 25.1208 22.8823C25.2726 22.8823 25.47 22.7912 25.5307 22.7001C25.5307 22.7001 26.791 23.1101 27.3984 23.2771C27.1554 23.596 27.0036 23.9908 26.9732 24.4008C26.4722 24.0971 24.4679 23.019 24.4679 23.019L23.8453 23.8693C23.739 24.006 23.2531 23.6415 23.3442 23.5049L23.815 22.852C23.6631 22.685 23.2835 22.7912 23.1772 22.8216C23.162 22.8216 23.1469 22.8216 23.162 22.7912C23.2228 22.6698 23.4505 22.275 24.0427 22.442C24.0427 22.0776 23.5113 22.1991 23.3746 22.2294C23.3594 22.2294 23.3594 22.2294 23.3746 22.2142C23.5265 22.0624 23.9516 21.7132 24.4375 22.0017L24.6501 21.7132L24.2249 21.2577L24.4982 20.8932L24.8019 21.3032L27.1099 18.1449C27.1706 18.069 27.6261 17.9324 27.7932 17.902C27.8083 18.0842 27.8235 18.5549 27.778 18.6308L25.5004 21.8195L25.9863 21.9713L25.7281 22.3357L25.1663 22.0776L24.9234 22.4268ZM33.0165 21.9106C33.0165 22.1991 33.1987 22.6242 33.5783 22.5027C33.5935 22.4876 33.6087 22.5027 33.6087 22.5179C33.5479 22.8368 32.9709 23.1405 32.7128 22.7609C32.485 23.2619 32.5306 23.7175 33.0317 23.9908C33.062 24.006 33.062 24.0363 33.0317 24.0667C32.728 24.2793 32.2573 24.2337 32.0447 23.8086C31.6347 24.1274 31.6955 24.7803 31.9384 25.0081C31.9384 25.0081 30.7844 25.6914 29.7519 25.2055C29.0686 24.8715 28.5068 24.4463 27.611 24.5222C27.7324 23.2771 28.355 22.9431 29.509 22.7609C30.42 22.609 30.5415 22.1839 30.4048 21.865C30.086 21.7891 29.5241 22.0624 29.5241 22.0624C29.4179 21.8954 29.5697 21.7132 29.5697 21.7132C29.509 21.6373 29.4786 21.4095 29.4786 21.4095C30.1163 21.4095 30.2378 21.2728 30.2378 21.2728C30.3593 20.6047 29.676 20.5288 29.1597 20.8932C28.9168 20.6807 28.9623 20.3922 28.9623 20.3922C28.8864 20.3618 28.8409 20.2403 28.8409 20.1948C28.8409 20.0429 29.6001 19.6026 29.7975 19.557C29.843 19.3293 30.1163 19.0256 30.9363 19.1015C31.0274 18.8889 30.8755 18.0994 30.7844 17.902C30.7541 17.8412 30.7996 17.7957 30.8755 17.8412C31.164 18.0235 31.4373 18.6764 31.6347 18.6915C31.6347 18.6915 32.5458 18.2208 32.5913 18.236C32.6369 18.2664 32.7583 19.2685 32.7583 19.2685C32.8798 19.4204 33.5783 19.2685 33.882 19.4052C33.9579 19.4356 33.9579 19.4963 33.882 19.5115C33.6542 19.557 32.9254 19.8607 32.8039 20.0733C33.2139 20.7262 33.0165 21.6524 33.0165 21.9106Z" fill="#717680"/>
<path d="M78.895 32.327C78.6368 32.4181 78.3331 32.4484 77.9991 32.4484C77.7713 32.4484 77.5588 32.4332 77.3766 32.3877C77.1943 32.3269 76.9969 32.2662 76.8299 32.1296C76.6477 32.0081 76.4807 31.8562 76.3137 31.674C76.1466 31.4918 75.9644 31.2489 75.767 30.9604L73.0187 26.7848H72.0318V31.1881L73.3528 31.5222V31.9777C73.0035 32.084 72.6391 32.1599 72.2443 32.2358C71.8647 32.2966 71.4244 32.3421 70.9689 32.3421C70.6197 32.3421 70.2552 32.3269 69.9516 32.2966C69.6175 32.251 69.329 32.2207 69.0101 32.1296V31.7348C69.4049 31.6133 69.7238 31.4463 69.9212 31.2185C70.1034 30.9907 70.2097 30.6415 70.2097 30.1556V19.9064L68.8887 19.4964V19.0409C69.2227 18.9802 69.5416 18.9346 69.8453 18.8891C70.1793 18.8435 70.4982 18.8283 70.8322 18.7828C71.1815 18.7676 71.5155 18.7372 71.8951 18.7372C72.2443 18.722 72.6239 18.722 73.0491 18.722C74.6282 18.722 75.7974 19.0105 76.5566 19.6179C77.331 20.2253 77.7106 21.0908 77.7106 22.2447C77.7106 22.761 77.6499 23.2317 77.498 23.672C77.3462 24.082 77.164 24.4616 76.8907 24.7957C76.6325 25.1297 76.3288 25.4182 75.9492 25.646C75.5696 25.9041 75.1597 26.0863 74.7042 26.223L77.6499 30.1708C77.908 30.5049 78.1965 30.7934 78.5305 31.0515C78.8646 31.2793 79.2138 31.4766 79.5934 31.5981V31.9929C79.396 32.1296 79.1683 32.2358 78.895 32.327ZM75.0382 20.5897C74.5371 20.1038 73.8235 19.876 72.9276 19.876C72.7758 19.876 72.6391 19.8912 72.4721 19.8912C72.3203 19.9064 72.1532 19.9368 72.0318 19.952V25.7978H72.8517C73.2465 25.7978 73.6413 25.7371 74.0057 25.5852C74.3549 25.4638 74.6738 25.2512 74.9471 24.9779C75.2204 24.7197 75.433 24.3705 75.6 23.9757C75.7519 23.5809 75.8278 23.0951 75.8278 22.5636C75.7974 21.7133 75.5545 21.0452 75.0382 20.5897Z" fill="#717680"/>
<path d="M83.8446 32.1296C83.6623 32.1751 83.4953 32.2207 83.2827 32.2359C83.1005 32.251 82.888 32.2814 82.6754 32.2966C82.4476 32.2966 82.2199 32.3118 81.9465 32.3118C81.7188 32.3118 81.4455 32.2966 81.1722 32.2662C80.8837 32.251 80.6104 32.2055 80.3826 32.1144V31.7651C80.5344 31.7196 80.6559 31.6589 80.7926 31.5829C80.914 31.507 81.0507 31.4159 81.1418 31.3096C81.2481 31.2337 81.324 31.1274 81.3999 30.9908C81.4607 30.8845 81.4758 30.763 81.4758 30.6415V23.5961L80.1396 23.0343V22.594C80.6255 22.4421 81.0811 22.3662 81.5214 22.3055C81.9617 22.2144 82.3413 22.1992 82.6298 22.1992H83.2979L83.1916 23.3228V31.2489L84.3608 31.5678V31.9625C84.1786 32.0385 84.0116 32.0992 83.8446 32.1296ZM83.4498 19.5116C83.389 19.6635 83.2979 19.8001 83.2068 19.9064C83.1005 20.0279 82.9791 20.119 82.8272 20.1797C82.6754 20.2556 82.5387 20.286 82.3717 20.286C82.2199 20.286 82.0832 20.2708 81.9314 20.2101C81.8099 20.1494 81.6732 20.0583 81.5821 19.952C81.491 19.8457 81.4151 19.7242 81.3544 19.5724C81.2936 19.4205 81.2633 19.2535 81.2633 19.0865C81.2633 18.9195 81.2785 18.7676 81.3544 18.631C81.3999 18.4791 81.4758 18.3576 81.5821 18.2362C81.6884 18.1147 81.8099 18.0236 81.9617 17.9629C82.1136 17.9021 82.2806 17.8566 82.4628 17.8566C82.6146 17.8566 82.7513 17.8718 82.888 17.9325C83.0094 17.978 83.1309 18.054 83.2372 18.1602C83.3435 18.2362 83.4042 18.3728 83.465 18.5095C83.5257 18.631 83.5561 18.798 83.5561 18.965C83.5409 19.1776 83.5105 19.3446 83.4498 19.5116Z" fill="#717680"/>
<path d="M88.6872 23.3836V32.7521C88.6872 33.6024 88.6265 34.3161 88.505 34.9082C88.3836 35.4701 88.2165 35.9256 88.004 36.29C87.7914 36.6392 87.5485 36.8973 87.26 37.0492C86.9715 37.201 86.6526 37.2618 86.3489 37.2618C86.106 37.2618 85.8934 37.2162 85.6808 37.1403C85.4682 37.0644 85.3012 36.9277 85.1646 36.7607V36.4266C85.3923 36.4266 85.6201 36.3659 85.8478 36.2444C86.0604 36.0926 86.2578 35.9104 86.4248 35.6371C86.5919 35.3638 86.7437 35.0297 86.8196 34.6349C86.9259 34.2401 86.9866 33.7846 86.9866 33.2532V23.6417L85.6504 23.0799V22.6395C86.1363 22.4877 86.5919 22.4118 87.0322 22.351C87.4725 22.2599 87.8521 22.2448 88.1406 22.2448H88.8239L88.6872 23.3836ZM88.9302 19.5116C88.8695 19.6635 88.8087 19.8001 88.7024 19.9064C88.581 20.0279 88.4747 20.119 88.3228 20.1797C88.171 20.2556 88.0343 20.286 87.8673 20.286C87.7003 20.286 87.5484 20.2708 87.427 20.2101C87.2751 20.1494 87.1688 20.0583 87.0777 19.952C86.9715 19.8457 86.8955 19.7242 86.85 19.5724C86.7892 19.4205 86.7741 19.2535 86.7741 19.0865C86.7741 18.9195 86.7892 18.7676 86.8348 18.631C86.8955 18.4791 86.9866 18.3576 87.0929 18.2362C87.1992 18.1147 87.3207 18.0236 87.4725 17.9629C87.6244 17.9021 87.7914 17.8566 87.9736 17.8566C88.0951 17.8566 88.2469 17.8718 88.3684 17.9325C88.5202 17.978 88.6265 18.054 88.7176 18.1602C88.8239 18.2362 88.8846 18.3728 88.9454 18.5095C89.0061 18.631 89.0213 18.798 89.0213 18.965C89.0061 19.1776 88.9909 19.3446 88.9302 19.5116Z" fill="#717680"/>
<path d="M99.6062 32.2206C99.348 32.2813 99.0899 32.3269 98.771 32.3269C98.4825 32.3269 98.2092 32.2662 97.9511 32.1447C97.7081 32.0232 97.4956 31.8106 97.283 31.5373L93.8818 27.058V31.2792L94.9598 31.6133V32.008C94.7776 32.0688 94.5802 32.1295 94.398 32.1599C94.231 32.2054 94.0488 32.251 93.8514 32.2662C93.6692 32.3117 93.4718 32.3269 93.2744 32.3269C93.0922 32.3421 92.8644 32.3421 92.6063 32.3421C92.3785 32.3421 92.1052 32.3269 91.8319 32.2965C91.5434 32.2814 91.2701 32.2358 91.0424 32.1447V31.7955C91.1942 31.7499 91.3308 31.6892 91.4523 31.6133C91.6042 31.5373 91.7105 31.4462 91.8016 31.3399C91.9078 31.264 91.9838 31.1577 92.0749 31.0211C92.1356 30.9148 92.1508 30.7933 92.1508 30.6718V18.5702L90.769 18.0084V17.5528C91.2549 17.401 91.7256 17.3251 92.166 17.2643C92.6063 17.2188 92.9859 17.1884 93.2744 17.1884H93.9881L93.8666 18.3576V26.6936L95.0054 25.6915C95.2787 25.4485 95.5672 25.1904 95.8253 24.9019C96.0835 24.6134 96.3112 24.3249 96.5086 24.0212C96.6908 23.7327 96.8578 23.4139 96.9641 23.1406C97.0856 22.8521 97.1463 22.5787 97.1463 22.351C97.3285 22.2902 97.5259 22.2447 97.693 22.2295C97.86 22.2143 98.0422 22.184 98.2548 22.184C98.4218 22.184 98.5736 22.1991 98.6951 22.2295C98.8166 22.2751 98.9684 22.3206 99.0899 22.3814C99.0899 22.6091 98.9988 22.8672 98.9077 23.1254C98.7862 23.4139 98.6192 23.7327 98.3914 24.0516C98.1637 24.3705 97.8448 24.7045 97.5108 25.0386C97.1615 25.3726 96.7364 25.7218 96.2657 26.0559L95.5368 26.5722L98.7559 30.4744C99.0443 30.8237 99.3177 31.0818 99.591 31.2488C99.8339 31.4007 100.092 31.4766 100.305 31.4766V31.9169C100.077 32.0384 99.8339 32.1599 99.6062 32.2206Z" fill="#717680"/>
<path d="M107.304 30.5504C107.121 30.8996 106.848 31.2337 106.514 31.507C106.18 31.7955 105.77 32.0232 105.284 32.1903C104.829 32.3573 104.282 32.4332 103.705 32.4332C102.794 32.4332 102.126 32.2814 101.701 31.9929C101.26 31.7196 101.048 31.2792 101.048 30.7174C101.048 30.5656 101.063 30.4289 101.093 30.2619C101.139 30.1101 101.169 29.9886 101.245 29.8671C101.701 30.3074 102.187 30.6415 102.642 30.8541C103.128 31.0818 103.629 31.1881 104.191 31.1881C104.768 31.1881 105.208 31.0666 105.527 30.8085C105.816 30.5656 105.967 30.2619 105.967 29.8975C105.967 29.7153 105.952 29.5482 105.892 29.3964C105.831 29.2446 105.725 29.1079 105.603 28.9561C105.451 28.8042 105.269 28.6828 105.041 28.5309C104.829 28.4094 104.54 28.2576 104.191 28.1058L103.143 27.6654C102.536 27.4225 102.08 27.0581 101.746 26.6177C101.427 26.1774 101.26 25.6763 101.26 25.0689C101.26 24.6438 101.336 24.249 101.519 23.8998C101.701 23.5202 101.959 23.1861 102.263 22.928C102.581 22.6547 102.946 22.4269 103.417 22.2599C103.857 22.0929 104.358 22.0018 104.905 22.0018C105.315 22.0018 105.679 22.0473 105.967 22.1081C106.256 22.1536 106.514 22.2599 106.696 22.351C106.879 22.4573 107.03 22.6091 107.121 22.7458C107.197 22.9128 107.243 23.095 107.243 23.2924C107.243 23.4594 107.243 23.6113 107.228 23.7327C107.213 23.8846 107.167 24.0212 107.152 24.1731C106.818 23.9453 106.438 23.7479 105.998 23.6113C105.588 23.4594 105.163 23.3835 104.768 23.3835C104.434 23.3835 104.145 23.4291 103.887 23.4898C103.644 23.5505 103.447 23.6568 103.28 23.7631C103.113 23.8846 102.991 24.0364 102.9 24.1883C102.84 24.3553 102.794 24.5223 102.794 24.6893C102.794 24.8716 102.809 25.0386 102.855 25.1904C102.915 25.3574 103.007 25.4789 103.128 25.6156C103.25 25.7674 103.417 25.8889 103.629 25.9952C103.842 26.1166 104.115 26.2229 104.419 26.3444L105.542 26.7847C105.922 26.9366 106.226 27.1036 106.499 27.2706C106.757 27.4377 106.985 27.6199 107.152 27.8324C107.304 28.0602 107.425 28.288 107.501 28.5461C107.562 28.8042 107.607 29.0927 107.607 29.3812C107.577 29.776 107.486 30.1708 107.304 30.5504Z" fill="#717680"/>
<path d="M117.932 29.199C117.659 29.8823 117.31 30.4745 116.854 30.9756C116.399 31.4615 115.867 31.8259 115.29 32.084C114.683 32.3573 114.076 32.4788 113.468 32.4788C112.846 32.4788 112.238 32.3725 111.692 32.1447C111.13 31.9322 110.644 31.6285 110.234 31.2033C109.839 30.8085 109.505 30.2923 109.247 29.7001C109.019 29.0927 108.898 28.4246 108.898 27.6503C108.898 26.8 109.05 26.0256 109.293 25.3271C109.566 24.6438 109.946 24.0365 110.371 23.5506C110.826 23.0799 111.358 22.7003 111.935 22.427C112.512 22.1536 113.149 22.0322 113.787 22.0322C114.44 22.0322 115.017 22.1536 115.579 22.3814C116.141 22.6092 116.627 22.928 117.021 23.3684C117.431 23.7935 117.75 24.2946 117.978 24.8716C118.221 25.4789 118.327 26.1319 118.327 26.8607C118.342 27.711 118.221 28.5006 117.932 29.199ZM116.217 25.4182C116.065 24.9627 115.867 24.5679 115.609 24.2339C115.336 23.915 115.047 23.672 114.713 23.505C114.379 23.338 114.03 23.2621 113.651 23.2621C113.301 23.2621 112.937 23.3684 112.603 23.5354C112.254 23.7176 111.935 23.9757 111.692 24.325C111.418 24.6742 111.191 25.1145 111.039 25.646C110.872 26.1622 110.796 26.7696 110.796 27.4681C110.796 28.0906 110.872 28.6524 111.024 29.1079C111.176 29.5938 111.373 29.9886 111.631 30.3227C111.904 30.6415 112.193 30.8845 112.527 31.0515C112.861 31.2033 113.21 31.2792 113.59 31.2792C113.939 31.2792 114.273 31.1881 114.638 31.0211C114.972 30.8541 115.29 30.5808 115.549 30.2316C115.822 29.8975 116.034 29.4572 116.201 28.9105C116.368 28.3943 116.46 27.7566 116.46 27.0581C116.46 26.4355 116.368 25.9041 116.217 25.4182Z" fill="#717680"/>
<path d="M127.802 23.1861L124.112 32.3877L123.383 32.4332L119.861 23.3228L119.01 22.7154V22.2144H122.973V22.7154L121.789 23.2165L124.067 29.8216H124.082L126.39 23.2772L125.175 22.7154V22.2144H128.409V22.7154L127.802 23.1861Z" fill="#717680"/>
<path d="M137.019 27.301H130.869C130.869 27.878 130.945 28.4094 131.097 28.8649C131.264 29.3205 131.492 29.7001 131.765 30.0189C132.039 30.3378 132.373 30.5807 132.752 30.7478C133.132 30.9148 133.527 30.9907 133.967 30.9907C134.225 30.9907 134.468 30.9755 134.741 30.93C135.015 30.8844 135.258 30.8237 135.516 30.7478C135.789 30.687 136.017 30.5807 136.26 30.4745C136.487 30.353 136.715 30.2163 136.913 30.0949C136.928 30.1404 136.958 30.2163 136.973 30.3226C136.989 30.4289 136.989 30.5352 136.989 30.6415C136.989 30.8996 136.897 31.1274 136.73 31.3248C136.563 31.5373 136.336 31.7347 136.017 31.9018C135.698 32.0688 135.334 32.1903 134.893 32.2965C134.438 32.4028 133.937 32.4484 133.39 32.4484C132.783 32.4484 132.236 32.3421 131.72 32.1143C131.173 31.8866 130.733 31.5677 130.338 31.1577C129.943 30.7326 129.624 30.2315 129.397 29.6545C129.184 29.0775 129.062 28.4094 129.062 27.6806C129.062 26.7847 129.184 25.9648 129.442 25.2511C129.685 24.5679 130.019 23.9757 130.444 23.505C130.839 23.0495 131.295 22.6699 131.826 22.4421C132.342 22.1992 132.889 22.0625 133.435 22.0625C133.997 22.0625 134.498 22.1536 134.954 22.3358C135.394 22.518 135.774 22.7761 136.078 23.1102C136.396 23.4594 136.624 23.8694 136.791 24.3401C136.958 24.8412 137.034 25.3574 137.034 25.9648C137.034 26.1774 137.034 26.3596 137.034 26.5873C137.049 26.7999 137.049 27.0429 137.019 27.301ZM135.212 24.8715C135.106 24.4919 134.954 24.1883 134.772 23.9301C134.589 23.6872 134.377 23.4898 134.104 23.3683C133.845 23.2469 133.557 23.1861 133.268 23.1861C132.98 23.1861 132.707 23.2772 132.418 23.4442C132.13 23.5961 131.872 23.8238 131.674 24.0972C131.446 24.3705 131.279 24.7045 131.128 25.0538C130.976 25.4334 130.915 25.7978 130.915 26.2229H135.379C135.379 25.6915 135.318 25.2511 135.212 24.8715Z" fill="#717680"/>
<path d="M144.885 23.6264C144.824 23.8542 144.733 24.0668 144.627 24.249C144.445 24.0971 144.232 23.9757 144.004 23.8997C143.776 23.8238 143.564 23.7783 143.336 23.7783C142.683 23.7783 142.091 24.0668 141.499 24.6286V31.264L142.941 31.5829V31.9777C142.774 32.0384 142.592 32.0991 142.395 32.1447C142.228 32.1902 142.045 32.2358 141.833 32.251C141.62 32.2662 141.393 32.2965 141.165 32.3117C140.922 32.3117 140.649 32.3269 140.345 32.3269C140.026 32.3269 139.738 32.3117 139.464 32.2813C139.176 32.2662 138.902 32.2206 138.675 32.1295V31.7803C138.826 31.7347 138.948 31.674 139.069 31.5981C139.221 31.5221 139.312 31.431 139.419 31.3247C139.525 31.2488 139.601 31.1425 139.692 31.0059C139.753 30.8996 139.768 30.7781 139.768 30.6566V23.6113L138.417 23.0494V22.5939C138.902 22.4421 139.358 22.3662 139.798 22.3054C140.239 22.2447 140.618 22.2143 140.922 22.2143H141.423V23.672H141.438L142.015 23.0191C142.288 22.7002 142.592 22.4725 142.896 22.3358C143.184 22.184 143.503 22.108 143.852 22.108C144.581 22.108 144.93 22.3965 144.93 23.0039C144.961 23.1861 144.946 23.3987 144.885 23.6264Z" fill="#717680"/>
<path d="M154.936 32.2358C154.557 32.2813 154.162 32.3117 153.706 32.3117C153.494 32.3117 153.266 32.2965 153.038 32.2661C152.78 32.251 152.583 32.2054 152.37 32.1143V31.7651C152.613 31.6436 152.81 31.4918 152.932 31.264C153.053 31.0514 153.114 30.7629 153.114 30.3833V26.4051C153.114 25.904 153.068 25.4637 152.962 25.1145C152.856 24.7349 152.704 24.4464 152.552 24.2338C152.37 24.006 152.127 23.839 151.884 23.7327C151.611 23.6264 151.322 23.5809 150.988 23.5809C150.806 23.5809 150.593 23.596 150.381 23.6264C150.199 23.672 149.986 23.7023 149.819 23.7783C149.637 23.839 149.47 23.8997 149.303 23.9908C149.151 24.0668 149.014 24.1579 148.893 24.2338V31.2488L150.062 31.5677V31.9625C149.88 32.0232 149.713 32.0839 149.546 32.1295C149.364 32.175 149.197 32.2206 148.984 32.2358C148.802 32.251 148.589 32.2813 148.377 32.2965C148.149 32.2965 147.921 32.3117 147.648 32.3117C147.42 32.3117 147.147 32.2965 146.873 32.2661C146.585 32.251 146.312 32.2054 146.084 32.1143V31.7651C146.236 31.7195 146.357 31.6588 146.494 31.5829C146.615 31.5069 146.752 31.4158 146.843 31.3095C146.949 31.2336 147.025 31.1273 147.101 30.9907C147.162 30.8844 147.177 30.7629 147.177 30.6414V18.5398L145.826 17.978V17.5224C146.312 17.3706 146.737 17.2947 147.162 17.2339C147.572 17.1884 147.982 17.158 148.331 17.158H148.999L148.893 18.3272V23.3076C149.272 22.9583 149.713 22.6546 150.214 22.4573C150.7 22.275 151.277 22.1688 151.93 22.1688C152.37 22.1688 152.78 22.2295 153.144 22.3813C153.494 22.5332 153.812 22.7306 154.055 23.0039C154.314 23.2772 154.511 23.6112 154.632 24.006C154.784 24.4312 154.845 24.9019 154.845 25.4181V31.264L155.923 31.5829V31.9776C155.619 32.0991 155.285 32.175 154.936 32.2358Z" fill="#717680"/>
<path d="M165.231 27.301H159.082C159.082 27.878 159.158 28.4094 159.31 28.8649C159.477 29.3205 159.704 29.7001 159.978 30.0189C160.251 30.3378 160.585 30.5807 160.965 30.7478C161.344 30.9148 161.739 30.9907 162.179 30.9907C162.437 30.9907 162.68 30.9755 162.954 30.93C163.227 30.8844 163.47 30.8237 163.728 30.7478C164.001 30.687 164.229 30.5807 164.472 30.4745C164.7 30.353 164.928 30.2163 165.125 30.0949C165.14 30.1404 165.171 30.2163 165.186 30.3226C165.201 30.4289 165.201 30.5352 165.201 30.6415C165.201 30.8996 165.11 31.1274 164.943 31.3248C164.776 31.5373 164.548 31.7347 164.229 31.9018C163.91 32.0688 163.546 32.1903 163.106 32.2965C162.65 32.4028 162.149 32.4484 161.602 32.4484C160.995 32.4484 160.448 32.3421 159.932 32.1143C159.385 31.8866 158.945 31.5677 158.55 31.1577C158.156 30.7326 157.837 30.2315 157.609 29.6545C157.396 29.0775 157.275 28.4094 157.275 27.6806C157.275 26.7847 157.396 25.9648 157.655 25.2511C157.897 24.5679 158.232 23.9757 158.657 23.505C159.051 23.0495 159.507 22.6699 160.038 22.4421C160.555 22.1992 161.101 22.0625 161.648 22.0625C162.21 22.0625 162.711 22.1536 163.166 22.3358C163.607 22.518 163.986 22.7761 164.29 23.1102C164.609 23.4594 164.837 23.8694 165.004 24.3401C165.171 24.8412 165.247 25.3574 165.247 25.9648C165.247 26.1774 165.247 26.3596 165.247 26.5873C165.247 26.7999 165.247 27.0429 165.231 27.301ZM163.424 24.8715C163.318 24.4919 163.166 24.1883 162.984 23.9301C162.802 23.6872 162.589 23.4898 162.316 23.3683C162.058 23.2469 161.769 23.1861 161.481 23.1861C161.192 23.1861 160.919 23.2772 160.631 23.4442C160.342 23.5961 160.084 23.8238 159.887 24.0972C159.659 24.3705 159.492 24.7045 159.34 25.0538C159.188 25.4334 159.127 25.7978 159.127 26.2229H163.591C163.591 25.6915 163.516 25.2511 163.424 24.8715Z" fill="#717680"/>
<path d="M170.363 32.1296C170.181 32.1751 170.014 32.2207 169.801 32.2359C169.619 32.251 169.407 32.2814 169.194 32.2966C168.966 32.2966 168.738 32.3118 168.465 32.3118C168.237 32.3118 167.964 32.2966 167.691 32.2662C167.402 32.251 167.129 32.2055 166.901 32.1144V31.7651C167.053 31.7196 167.174 31.6589 167.311 31.5829C167.433 31.507 167.569 31.4159 167.66 31.3096C167.767 31.2337 167.843 31.1274 167.918 30.9908C167.979 30.8845 167.994 30.763 167.994 30.6415V23.5961L166.658 23.0343V22.594C167.144 22.4421 167.6 22.3662 168.04 22.3055C168.48 22.2144 168.86 22.1992 169.148 22.1992H169.816L169.71 23.3228V31.2489L170.879 31.5678V31.9625C170.697 32.0385 170.53 32.0992 170.363 32.1296ZM169.968 19.5116C169.908 19.6635 169.816 19.8001 169.725 19.9064C169.619 20.0279 169.498 20.119 169.346 20.1797C169.194 20.2556 169.057 20.286 168.89 20.286C168.738 20.286 168.602 20.2708 168.45 20.2101C168.328 20.1494 168.192 20.0583 168.101 19.952C168.01 19.8457 167.934 19.7242 167.873 19.5724C167.812 19.4205 167.782 19.2535 167.782 19.0865C167.782 18.9195 167.797 18.7676 167.873 18.631C167.918 18.4791 167.994 18.3576 168.101 18.2362C168.207 18.1147 168.328 18.0236 168.48 17.9629C168.632 17.9021 168.799 17.8566 168.981 17.8566C169.133 17.8566 169.27 17.8718 169.407 17.9325C169.528 17.978 169.649 18.054 169.756 18.1602C169.862 18.2362 169.923 18.3728 169.984 18.5095C170.044 18.631 170.075 18.798 170.075 18.965C170.044 19.1776 170.029 19.3446 169.968 19.5116Z" fill="#717680"/>
<path d="M180.536 32.008C180.308 32.1599 180.035 32.3269 179.746 32.4635C179.534 32.2965 179.352 32.1143 179.169 31.8866C179.002 31.6588 178.851 31.431 178.759 31.2185C178.592 31.3855 178.41 31.5525 178.182 31.7043C177.97 31.8562 177.742 31.9777 177.514 32.0839C177.256 32.1902 177.028 32.2662 176.785 32.3269C176.543 32.3876 176.3 32.418 176.102 32.418C175.586 32.418 175.085 32.3117 174.614 32.0991C174.159 31.8866 173.764 31.5829 173.399 31.2033C173.065 30.8085 172.792 30.3226 172.58 29.7608C172.397 29.199 172.291 28.5764 172.291 27.878C172.291 26.9366 172.412 26.1014 172.686 25.403C172.959 24.6741 173.308 24.0668 173.764 23.5809C174.204 23.0798 174.751 22.7002 175.343 22.4573C175.95 22.1991 176.573 22.0777 177.256 22.0777C177.514 22.0777 177.757 22.0929 178.031 22.1232C178.304 22.1384 178.532 22.184 178.699 22.2295V18.555L177.287 17.9932V17.5376C177.772 17.3858 178.243 17.3099 178.699 17.2491C179.185 17.2036 179.549 17.1732 179.868 17.1732H180.536L180.414 18.3424V30.2922C180.49 30.5048 180.597 30.7174 180.733 30.9148C180.855 31.1274 181.007 31.3247 181.219 31.4918C180.991 31.674 180.764 31.841 180.536 32.008ZM178.714 23.4898C178.547 23.429 178.319 23.3835 178.031 23.3228C177.757 23.2772 177.484 23.262 177.195 23.262C176.755 23.262 176.345 23.3379 175.966 23.5353C175.586 23.7024 175.252 23.9757 174.963 24.3249C174.69 24.6741 174.478 25.1145 174.31 25.6611C174.159 26.2077 174.083 26.8303 174.083 27.5591C174.083 28.1209 174.143 28.622 174.295 29.0623C174.447 29.5027 174.629 29.8823 174.857 30.1708C175.085 30.4593 175.343 30.687 175.647 30.8389C175.935 31.0059 176.254 31.0666 176.588 31.0666C176.801 31.0666 176.983 31.0514 177.195 31.0211C177.408 30.9755 177.59 30.9451 177.772 30.8692C177.955 30.8085 178.122 30.7478 178.289 30.6566C178.456 30.5807 178.577 30.4896 178.699 30.3833V23.4898H178.714Z" fill="#717680"/>
</g>
<defs>
<clipPath id="svg418107405_47252_clip0_23_5821">
<rect width="180.438" height="48" fill="white" transform="translate(0.780762)"/>
</clipPath>
</defs>
</svg>