<svg xmlns="http://www.w3.org/2000/svg" width="184" height="38" viewBox="0 0 184 38" fill="none">
<g clip-path="url(#svg-1745219559_6651_clip0_23_5610)">
<path d="M65.0495 21.6805C65.0495 23.5864 66.1218 24.8968 68.1771 24.8968C69.5175 24.8968 70.3813 24.5692 72.3174 23.3482L71.8706 26.7134C70.977 27.1303 70.0536 27.8153 67.492 27.8153C63.9772 27.8153 61.356 25.3733 61.356 21.2635C61.356 17.0347 64.3942 13.6695 68.0281 13.6695C71.1855 13.6695 73.211 16.0817 73.211 19.4469C73.211 20.1617 73.211 20.519 73.0918 21.6805H65.0495ZM69.4877 19.2087C69.5175 18.7918 69.4877 18.5833 69.4877 18.4642C69.4877 17.2432 68.9813 16.3497 67.7898 16.3497C66.3303 16.3497 65.675 17.8388 65.4069 19.2087H69.4877Z" fill="#717680"/>
<path d="M57.096 10.4528H58.0491L57.5428 14.0563H61.2065L60.7895 16.9152H57.1853L56.7088 20.4293L56.5002 21.6801C56.4407 22.0672 56.4407 22.3948 56.4109 22.7522C56.3215 23.7647 56.6492 24.4199 57.3641 24.5688C58.3172 24.7475 58.913 24.5688 60.4023 23.7052L59.9257 26.9215C58.347 27.5469 57.6321 27.7851 56.53 27.7851C54.1769 27.7851 52.6578 26.1174 52.6578 23.4669C52.6578 22.6628 52.6876 22.2459 53.045 20.1315L53.4918 16.9152H51.0791L51.1982 16.1111L57.096 10.4528Z" fill="#717680"/>
<path d="M178.238 27.3685L178.208 27.3387L179.31 18.9704C179.4 18.4939 179.459 17.8983 179.012 17.5707C178.715 17.3325 178.298 17.2431 177.91 17.3325C177.195 17.6005 176.6 18.1663 176.004 18.7322L174.842 27.3387C173.532 27.3685 172.549 27.309 171.208 27.3387L172.34 18.4939C172.34 18.077 172.221 17.7196 171.864 17.4814C171.566 17.3027 171.298 17.2431 170.94 17.3027C170.166 17.5409 169.54 18.077 168.974 18.6726L167.842 27.3387H164.179L165.936 14.0566H169.6C169.57 14.6522 169.421 15.2776 169.332 15.903H169.421C170.553 14.4735 172.221 13.4014 174.068 13.9077C174.783 14.0566 175.408 14.6224 175.825 15.2478C175.944 15.4265 176.034 15.635 176.093 15.8137C176.093 15.8434 176.123 15.8434 176.153 15.8434C177.583 14.5629 179.34 13.2525 181.336 14.0268C182.378 14.3842 183.034 15.5158 183.153 16.588C183.242 17.0347 183.183 17.4814 183.153 17.9281L181.902 27.3685L181.872 27.3983H178.238V27.3685Z" fill="#717680"/>
<path d="M97.0094 33.5331H93.3457L95.9371 14.2353C98.3796 13.6695 101.656 13.193 103.801 14.7714C104.486 15.2478 105.171 15.9626 105.588 16.7071C106.928 18.9109 106.452 22.0378 105.409 24.2416C104.396 26.2071 102.52 27.6366 100.286 27.6068C99.4222 27.577 98.6477 27.3685 97.8733 27.0707L97.0094 33.5331ZM98.3201 24.0033C98.6477 24.182 98.9754 24.3309 99.3626 24.3905C100.524 24.5692 101.537 23.9735 102.103 22.9908C102.818 21.5315 103.086 19.5065 102.341 17.9877C101.775 16.8262 100.435 16.4093 99.303 16.7667L98.3201 24.0033Z" fill="#717680"/>
<path d="M118.814 15.8434C120.571 18.6427 119.886 22.4844 118.218 25.0753C116.788 27.1897 114.346 28.2023 111.814 27.6365C110.235 27.3387 108.716 25.9092 108.18 24.3904C107.346 21.7995 108.061 18.9703 109.252 16.7368C110.473 14.5628 112.737 13.4907 115.209 13.7289C116.639 13.8183 117.979 14.5628 118.814 15.8434ZM114.643 16.5581C113.839 16.439 113.154 16.8857 112.677 17.4515C111.665 19.0299 111.426 21.0847 111.575 23.0205C111.695 23.8543 112.171 24.718 113.005 24.9264C113.571 25.0753 114.077 24.8073 114.465 24.4797C115.328 23.5565 115.656 22.4249 115.894 21.2336C116.073 19.8935 116.282 18.3151 115.507 17.1537C115.299 16.7666 114.971 16.6177 114.643 16.5581Z" fill="#717680"/>
<path d="M161.765 27.3385H158.102C158.102 27.0109 158.191 26.7428 158.221 26.4153H158.131C156.97 27.4278 155.153 28.0234 153.604 27.3087C151.549 26.1175 150.893 23.8244 151.072 21.5015C151.132 18.6425 152.651 16.0516 155.123 14.5328C157.506 13.1629 160.872 13.5501 163.523 14.1457L161.765 27.3385ZM157.327 16.9153C155.302 17.9874 154.706 20.3996 154.825 22.6033C154.914 23.3181 155.302 24.1222 156.046 24.3306C157.029 24.6582 157.893 24.0626 158.608 23.4074L159.353 17.6896L159.472 16.677C158.757 16.4983 157.953 16.5877 157.327 16.9153Z" fill="#717680"/>
<path d="M133.617 10.453H134.571L134.064 14.0565H137.698L137.281 16.9154H133.677L133.2 20.4295L132.992 21.6803C132.932 22.0674 132.932 22.395 132.903 22.7524C132.813 23.7649 133.141 24.4201 133.856 24.569C134.809 24.7477 135.405 24.569 136.864 23.7054L136.388 26.9217C134.809 27.547 134.094 27.7853 132.992 27.7853C130.639 27.7853 129.12 26.1176 129.12 23.4671C129.12 22.663 129.149 22.2461 129.507 20.1317L129.954 16.9154H127.601L127.72 16.1113L133.617 10.453Z" fill="#717680"/>
<path d="M141.57 21.6805C141.57 23.5864 142.643 24.8968 144.698 24.8968C146.038 24.8968 146.902 24.5692 148.838 23.3482L148.362 26.7134C147.468 27.1303 146.575 27.8153 143.983 27.8153C140.468 27.8153 137.847 25.3733 137.847 21.2635C137.847 17.0347 140.885 13.6695 144.519 13.6695C147.677 13.6695 149.702 16.0817 149.702 19.4469C149.702 20.1617 149.702 20.519 149.583 21.6805H141.57ZM146.038 19.2087C146.068 18.7918 146.038 18.5833 146.038 18.4642C146.038 17.2432 145.532 16.3497 144.341 16.3497C142.881 16.3497 142.226 17.8388 141.958 19.2087H146.038Z" fill="#717680"/>
<path d="M88.3717 27.3685L88.3419 27.3387L89.444 18.9704C89.5334 18.4939 89.593 17.8983 89.1462 17.5707C88.8483 17.3325 88.4313 17.2431 88.0441 17.3325C87.3292 17.6005 86.7335 18.1663 86.1377 18.7322L84.9761 27.3387C83.6655 27.3685 82.6825 27.309 81.3421 27.3387L82.474 18.4939C82.5038 18.077 82.3549 17.7196 81.9974 17.4814C81.6996 17.3027 81.4315 17.2431 81.074 17.3027C80.2996 17.5409 79.6741 18.077 79.1081 18.6726L77.9762 27.3387H74.3125L76.0699 14.0566H79.7336C79.7039 14.6522 79.5549 15.2776 79.4656 15.903H79.5549C80.6868 14.4735 82.3549 13.4014 84.2016 13.9077C84.9165 14.0566 85.542 14.6224 85.959 15.2478C86.0782 15.4265 86.1675 15.635 86.2271 15.8137C86.2569 15.8434 86.2867 15.8434 86.3165 15.8434C87.7462 14.5629 89.5036 13.2525 91.4993 14.0268C92.5418 14.3842 93.1971 15.5158 93.3163 16.588C93.4056 17.0347 93.3461 17.4814 93.3163 17.9281L92.0653 27.3685L92.0057 27.3983H88.3717V27.3685Z" fill="#717680"/>
<path fill-rule="evenodd" clip-rule="evenodd" d="M39.284 19C39.284 29.4934 30.669 38 20.0419 38C9.41478 38 0.799805 29.4934 0.799805 19C0.799805 8.50659 9.41478 0 20.0419 0C30.669 0 39.284 8.50659 39.284 19ZM22.4245 2.1742H20.5182L8.90147 13.1632L8.69297 14.7118H13.3099L12.4461 20.936C11.761 25.0457 11.7014 25.8498 11.7014 27.3983C11.7014 32.5206 14.7098 35.7667 19.3268 35.7667C21.4714 35.7667 22.8713 35.32 25.9989 34.099L26.9521 27.8748C24.0628 29.5723 22.5437 29.8404 21.0246 29.5425C19.4161 29.1852 18.8502 27.6664 19.3565 24.0629C19.8629 20.4297 20.6671 14.7118 20.6671 14.7118H27.7563L28.5606 9.14286H21.4416L22.4245 2.1742Z" fill="#717680"/>
</g>
<defs>
<clipPath id="svg-1745219559_6651_clip0_23_5610">
<rect width="182.4" height="38" fill="white" transform="translate(0.799805)"/>
</clipPath>
</defs>
</svg>