<svg xmlns="http://www.w3.org/2000/svg" width="124" height="32" viewBox="0 0 124 32" fill="none">
<g clip-path="url(#svg66021726_4483_clip0_23_5578)">
<path fill-rule="evenodd" clip-rule="evenodd" d="M78.508 5.41467C83.8578 5.41467 87.8799 9.69157 87.8799 15.389C87.8799 21.1939 83.7169 25.4401 77.9568 25.5092V21.2988C81.0765 21.263 83.2196 18.9979 83.2196 15.6373C83.2196 12.205 81.0048 9.69157 77.9568 9.69157C76.5572 9.69157 75.0884 10.1907 73.9887 11.002V32H69.3643V9.78371L69.577 9.58663C70.5511 8.68569 71.7021 7.76428 73.0146 6.84542C74.3629 5.89074 76.2214 5.41467 78.508 5.41467Z" fill="#717680"/>
<path fill-rule="evenodd" clip-rule="evenodd" d="M8.19807 0V5.81771H12.5918V10.0997H8.19807V17.5837C8.19807 20.2558 8.74665 21.1925 10.2539 21.1925C11.0153 21.1925 11.974 20.9263 12.5918 20.5194L13.6197 24.6069L13.248 24.7835C12.3636 25.2263 10.964 25.5104 9.70537 25.5104C7.77255 25.5104 6.1781 24.8552 5.0989 23.5959C4.05302 22.4288 3.5916 20.7677 3.5916 18.2031V10.0997H0.261719V5.81771H3.5916V2.88198L3.8582 2.68746C4.92202 1.89146 6.05505 1.18504 7.22397 0.54773L8.19807 0Z" fill="#717680"/>
<path fill-rule="evenodd" clip-rule="evenodd" d="M106.291 7.60488C109.933 10.8621 109.171 15.8446 109.095 16.2983L109.09 16.325L109.003 16.8753H95.4298C95.9783 19.5833 98.1778 21.2265 101.313 21.2265C104.448 21.2265 106.894 19.331 107.093 19.1692L107.106 19.1584L108.206 23.4916L107.939 23.704C106.84 24.5 104.094 25.4906 101.064 25.4906C98.7238 25.4906 96.227 24.907 94.1891 23.1921C89.6185 19.3529 89.903 12.5063 93.0022 8.78992C94.6325 6.84471 97.0601 5.62384 99.6466 5.42932C102.128 5.27063 104.556 6.04871 106.291 7.60488ZM103.012 10.5585C101.418 9.34021 98.7084 9.46306 97.0781 10.8426C96.2629 11.5311 95.8374 12.363 95.6246 12.9491H104.556C104.394 12.2939 103.989 11.3187 103.012 10.5585Z" fill="#717680"/>
<path fill-rule="evenodd" clip-rule="evenodd" d="M30.5801 7.60488C34.2217 10.8621 33.4596 15.8446 33.3838 16.2983L33.3793 16.325L33.2922 16.8753H19.7188C20.27 19.5833 22.4668 21.2265 25.6019 21.2265C28.7371 21.2265 31.1827 19.331 31.3822 19.1692L31.3952 19.1584L32.4949 23.4916L32.2283 23.704C31.1286 24.5 28.3832 25.4906 25.3532 25.4906C23.0154 25.4906 20.5161 24.907 18.4781 23.1921C13.9075 19.3529 14.1921 12.5063 17.2913 8.78992C18.9216 6.84471 21.3492 5.62384 23.9357 5.42932C26.4171 5.27063 28.8446 6.04871 30.5801 7.60488ZM21.3671 10.8426C20.6425 11.4546 20.2258 12.1799 19.9927 12.7451L19.9136 12.9491H28.8446C28.6831 12.2939 28.2781 11.3187 27.3014 10.5585C25.707 9.34021 22.9974 9.46306 21.3671 10.8426Z" fill="#717680"/>
<path fill-rule="evenodd" clip-rule="evenodd" d="M59.0604 5.4126C59.0758 5.4126 59.0886 5.41516 59.1066 5.41516L59.1156 5.41644C59.6936 5.42028 60.2345 5.48682 60.7523 5.59176C60.883 5.61736 61.0035 5.66855 61.1317 5.70438C61.529 5.80676 61.911 5.92961 62.2698 6.09342C62.3903 6.14973 62.5006 6.21884 62.6159 6.28026C62.9466 6.45943 63.2593 6.65395 63.5464 6.88174C63.6772 6.98668 63.7976 7.0993 63.9207 7.20936C64.0386 7.32197 64.1796 7.41411 64.2873 7.53441C64.3847 7.63935 64.4488 7.76988 64.5359 7.8825C64.6128 7.9772 64.7128 8.05143 64.782 8.15125V8.22803C65.4408 9.22367 65.7946 10.4804 65.8971 12.1517L65.933 12.1901C65.9509 12.5152 65.9509 12.8556 65.9509 13.196L65.9535 13.2318V25.1129H61.3316V13.8205C61.3316 11.8804 61.0932 11.2277 60.6498 10.7056C60.1268 10.1067 59.3962 9.70485 58.4247 9.69973H57.5711C56.1612 9.69973 54.6949 10.1835 53.5901 11.0025V25.1129H48.9708V13.8205C48.9708 11.8804 48.7298 11.2277 48.2864 10.7056C47.7634 10.1067 47.0354 9.70485 46.0613 9.69973H45.2077C43.7978 9.69973 42.3315 10.1835 41.2267 11.0025V25.1129H36.6074V9.78164L36.8176 9.58712C37.884 8.59148 39.0375 7.6675 40.2347 6.84079L40.5577 6.61811C41.8496 5.82467 43.5697 5.44075 45.6153 5.42284L45.6076 5.41516H46.897L46.9149 5.43307C48.8785 5.47658 50.5755 6.21372 51.7778 7.44995C52.052 7.24775 52.3186 7.03275 52.5981 6.84079L52.921 6.61811C54.2412 5.80932 56.0074 5.41516 58.1197 5.41516L59.0463 5.41388L59.0604 5.4126Z" fill="#717680"/>
<path fill-rule="evenodd" clip-rule="evenodd" d="M121.713 5.41553C122.211 5.41553 122.698 5.45648 123.175 5.52559L123.739 5.61261V9.7001H121.162C119.755 9.7001 118.289 10.1813 117.184 11.0029V25.0775H112.562V9.78201L112.772 9.58749C113.841 8.58929 114.992 7.66787 116.189 6.84116L116.515 6.61849C117.835 5.80713 119.601 5.41553 121.713 5.41553Z" fill="#717680"/>
</g>
<defs>
<clipPath id="svg66021726_4483_clip0_23_5578">
<rect width="123.477" height="32" fill="white" transform="translate(0.261719)"/>
</clipPath>
</defs>
</svg>