<svg xmlns="http://www.w3.org/2000/svg" width="124" height="32" viewBox="0 0 124 32" fill="none">
<g clip-path="url(#svg-701544370_5752_clip0_23_5690)">
<path fill-rule="evenodd" clip-rule="evenodd" d="M84.5482 21.4998C82.6887 23.8902 79.4104 26.0613 77.6862 24.2404C76.4146 22.8968 78.3958 19.7214 80.3823 17.8899C82.6335 15.8134 84.8354 15.2874 85.9986 15.863C87.8477 16.9904 85.2911 20.5464 84.5482 21.4998ZM25.0255 29.0531C15.5909 26.8346 20.9083 23.1848 27.4105 23.6925C29.6255 23.8652 32.5457 24.2575 39.9161 27.4628C36.0646 29.3486 29.0432 29.9978 25.0255 29.0531ZM110.48 5.09738C114.11 2.74297 115.004 3.92171 113.392 6.23272C111.037 9.60894 105.214 15.4189 99.6294 18.6855C102.779 12.6599 106.107 7.93442 110.48 5.09738ZM115.729 15.7385C117.034 14.903 118.253 15.1257 118.48 15.6263C118.881 16.517 117.607 17.826 115.729 19.0121C113.429 20.4653 112.264 21.0273 111.412 21.3876C111.397 21.3788 111.81 18.2459 115.729 15.7385ZM51.9445 12.8107C49.7521 16.3676 43.2171 27.1086 41.3213 26.3581C26.2817 20.4074 15.9648 20.1462 15.2538 25.8545C14.7761 29.7186 25.9647 33.1641 37.802 31.2787C40.1331 30.9087 42.5916 30.5401 44.2947 29.6103C50.5961 32.4846 56.608 32.0945 61.2305 30.4366C67.528 28.6073 72.8316 23.9748 73.0752 23.8442C72.2752 26.0631 72.9512 28.9234 75.5268 28.9234C78.3485 28.9234 80.7777 26.6238 81.8242 26.046C82.6328 33.0733 93.0374 24.3478 92.9467 24.5977C92.5999 25.5516 92.7355 26.647 92.739 26.6755C93.1964 30.2635 99.6074 28.4053 106.917 25.1974C108.5 32.0059 117.77 28.0252 123.218 22.622L122.651 22.0316C114.008 27.3304 111.938 25.1198 111.539 23.2945C111.526 23.2752 112.791 23.0735 117.731 19.9897C120.087 18.5181 121.942 16.7095 121.906 14.8644C121.851 12.098 116.225 12.9624 112.868 15.191C109.621 17.2706 107.209 20.1045 106.827 23.4597C106.827 23.4597 95.2402 28.4912 98.5851 21.3525C109.911 15.1687 115.302 8.26586 117.006 6.23671C119.902 2.78465 120.779 -2.11222 112.6 1.40515C107.926 3.41764 97.8214 10.8473 93.1929 22.4629C93.1834 22.3783 87.6163 25.7247 87.0199 25.2057C86.7227 24.9466 86.8778 24.6297 92.7195 15.4707L93.7661 13.8093C93.7661 13.8093 89.5993 13.8093 89.5928 13.8027L87.9917 15.9954C88.0388 15.3523 87.7407 13.4976 85.036 13.41C81.0809 13.2815 77.502 16.2115 74.142 20.2716C70.9419 24.4394 66.5682 26.6593 62.6757 28.5534C69.1511 23.3659 75.5151 14.6229 73.162 6.94597C71.6883 2.13852 66.3713 -0.467948 55.0984 0.728326C51.2556 1.136 47.8875 1.91759 44.0382 2.50367C26.4268 5.18465 12.9188 5.20876 6.30692 3.14586C1.82959 1.75145 1.37391 1.30652 0.826661 1.66027C0.323037 1.98597 4.19136 4.79276 10.2059 5.87463C16.7478 7.05293 23.5805 7.35233 33.7182 6.74696C40.7028 6.32964 44.7893 5.53665 54.5007 4.67178C62.931 3.92131 71.6602 7.65654 66.0443 17.3381C60.3947 27.0779 53.8303 30.9543 46.799 28.5131C49.5387 27.0214 50.7736 25.4218 55.2997 14.5589C57.0335 10.3976 58.7063 9.55989 58.6964 9.55682C54.4726 8.18213 52.9868 11.1196 51.9445 12.8107Z" fill="#717680"/>
<path fill-rule="evenodd" clip-rule="evenodd" d="M25.128 15.0875C26.9399 13.3306 29.1824 11.0827 29.7634 11.4264C30.0938 11.6223 29.0654 13.3525 26.438 17.8132C26.4268 17.833 29.4546 17.8141 29.455 17.8132C31.7563 13.3025 34.4122 11.6311 34.9892 11.7411C35.6773 11.8713 34.7063 13.4893 33.674 15.8393C32.4292 18.6715 37.0474 18.4138 39.3957 16.8383C42.6918 14.6281 45.5701 12.5556 48.2524 10.7592C51.0322 8.8975 52.4079 8.31624 56.186 8.16808C56.186 8.16808 54.8146 7.79416 53.0096 8.02518C50.5398 8.34123 48.683 9.40731 42.868 13.4183C41.072 14.6571 37.3091 17.1053 36.5265 16.6608C36.0146 16.3702 36.3883 15.7499 37.7268 13.0558C38.1704 12.1624 38.5017 11.6127 38.3915 11.1138C38.1501 10.0188 37.0759 9.89126 35.6345 10.2577C34.6338 10.5128 33.3337 11.3435 32.5852 11.8213C32.6499 11.3111 32.2647 10.6045 31.92 10.3401C31.3848 9.92808 30.5322 9.88907 29.033 10.6202C27.9394 11.1607 26.029 12.7813 24.5686 14.2595L24.5647 14.2643L24.5159 14.3108L24.5082 14.32C23.3601 15.4829 21.9766 16.6775 21.5814 16.2764C21.4903 16.1839 21.5274 16.0694 21.6333 15.8156C22.3308 14.3585 24.8109 10.4322 24.8109 10.4322C24.8109 10.4322 22.5187 10.4225 22.1416 10.4322C22.1416 10.4322 21.4177 11.5504 21.4013 11.5724C20.49 9.49367 18.5394 10.1319 17.7148 10.4458C15.4714 11.2997 14.2793 12.873 14.2793 12.873C13.7718 13.1171 12.2048 13.3828 11.5392 13.2811C11.6195 13.1938 12.3564 12.5402 12.6013 11.9112C12.8712 11.2168 12.7019 10.5111 11.7733 10.313C10.6801 10.0793 10.0028 10.5387 9.64951 10.9797C8.77227 12.0747 9.47069 12.7927 9.74842 13.0983C9.06684 13.9088 8.15764 14.8127 7.10288 15.5184C6.05244 16.2216 5.55097 16.1944 5.23135 15.9568C5.03353 15.7968 5.08752 15.4544 5.3484 14.9613C5.63563 14.4318 6.61005 12.5565 7.01304 11.7556C7.62508 10.5413 6.86187 9.98463 6.42821 9.8106C5.76175 9.54277 5.0616 9.37224 3.89973 9.91098C2.22602 10.6873 1.6792 11.6394 1.6792 11.6394L2.08434 11.9682C2.90068 11.2694 3.69629 10.8473 4.09539 11.1393C4.29407 11.2861 4.39212 11.5434 4.0414 12.1391C3.64316 12.8655 3.55332 13.0987 2.42168 15.2011C1.54444 17.0299 3.23845 18.1118 4.46641 18.0228C5.90731 17.9184 7.46311 16.7695 8.85779 15.6736C8.85779 15.6736 10.5838 14.1959 10.9388 13.8926C11.6631 14.0933 13.0272 13.8558 13.8038 13.6914C13.6103 14.0442 13.0868 15.1932 12.9978 15.9577C12.7067 18.4519 15.2835 18.2209 16.1953 17.929C16.8838 17.708 17.98 16.8296 18.5346 16.293C18.5709 16.3802 18.7243 17.9228 20.1729 18.0096C21.6346 18.0968 22.5904 17.7501 25.0532 15.1625L25.128 15.0875ZM19.3672 14.17C18.3764 15.6744 16.8267 16.4004 15.9602 15.9633C14.7094 15.3312 16.1287 13.2394 16.7493 12.5564C17.6395 11.5754 18.4757 11.3053 19.3262 11.4732C20.0505 11.6161 20.4825 12.4762 19.3672 14.17Z" fill="#717680"/>
</g>
<defs>
<clipPath id="svg-701544370_5752_clip0_23_5690">
<rect width="122.435" height="31.6199" fill="white" transform="translate(0.782715 0.190063)"/>
</clipPath>
</defs>
</svg>