<svg xmlns="http://www.w3.org/2000/svg" width="150" height="40" viewBox="0 0 150 40" fill="none">
<g clip-path="url(#svg-1201247981_5450_clip0_23_5423)">
<path d="M138.415 16.8953C136.252 16.8953 134.509 17.6652 133.195 19.0041V10.9473H127.804V34.2018H133.192V26.403C133.192 23.1544 134.572 21.7151 136.653 21.7151C138.405 21.7151 139.583 23.054 139.583 25.0296V34.2046H144.938V23.8912C144.949 19.6736 142.321 16.8953 138.415 16.8953Z" fill="#717680"/>
<path d="M147.125 11.1935C145.896 11.1935 144.891 12.1315 144.891 13.4378C144.891 14.7331 145.896 15.671 147.125 15.671C148.353 15.671 149.358 14.7331 149.358 13.4378C149.358 12.1315 148.353 11.1935 147.125 11.1935ZM147.125 15.2355C146.153 15.2355 145.349 14.4651 145.349 13.4378C145.349 12.3882 146.153 11.6178 147.125 11.6178C148.108 11.6178 148.911 12.3882 148.911 13.4378C148.911 14.4651 148.108 15.2355 147.125 15.2355ZM148.096 13.0247C148.096 12.6115 147.762 12.3436 147.259 12.3436H146.309V14.3981H146.756V13.7393H147.091L147.672 14.3981H148.208L147.571 13.6947C147.895 13.5942 148.096 13.3485 148.096 13.0247ZM146.756 13.3374V12.7455H147.259C147.493 12.7455 147.649 12.8572 147.649 13.0359C147.649 13.2145 147.493 13.3374 147.259 13.3374H146.756Z" fill="#717680"/>
<path d="M97.6971 17.0291C95.5076 17.0291 93.7571 17.6986 92.4432 18.8699V17.5309H87.0557V39.1782H92.4432V32.9966C93.7571 34.1693 95.5076 34.8388 97.6971 34.8388C102.176 34.8388 105.948 31.2548 105.948 25.9332C105.948 20.6447 102.176 17.0291 97.6971 17.0291ZM96.5832 30.2856C94.3945 30.2856 92.4406 28.5452 92.4406 25.9332C92.4406 23.3528 94.3945 21.5822 96.5832 21.5822C98.9397 21.5822 100.657 23.3556 100.657 25.9332C100.661 28.5452 98.9432 30.2856 96.5832 30.2856Z" fill="#717680"/>
<path d="M18.745 26.5065L15.5449 17.4346H11.7406L8.54058 26.4735L5.77895 17.4346H0.492188L5.9145 34.2738H10.5956L13.6601 25.1675L16.6899 34.2738H21.371L26.7933 17.4346H21.5065L18.745 26.5065Z" fill="#717680"/>
<path d="M38.8742 16.8953C36.7197 16.8953 34.9675 17.6652 33.6552 19.0041V10.9473H28.2661V34.2018H33.6552V26.403C33.6552 23.1544 35.0353 21.7151 37.1163 21.7151C38.867 21.7151 40.0466 23.054 40.0466 25.0296V34.2046H45.4012V23.8912C45.4084 19.6736 42.7809 16.8953 38.8742 16.8953Z" fill="#717680"/>
<path d="M56.0751 17.0291C50.9556 17.0291 46.7129 20.5787 46.7129 25.8673C46.7129 31.1902 50.9556 34.7384 56.0751 34.7384C61.0921 34.7384 65.3363 31.1902 65.3363 25.8673C65.3363 20.5787 61.0921 17.0291 56.0751 17.0291ZM56.0751 30.2182C53.8859 30.2182 51.893 28.5109 51.893 25.8658C51.893 23.2552 53.8802 21.5149 56.0751 21.5149C58.1632 21.5149 60.1505 23.2552 60.1505 25.8658C60.1505 28.5137 58.1632 30.2196 56.0751 30.2196V30.2182Z" fill="#717680"/>
<path d="M77.4254 17.0291C75.2363 17.0291 73.4856 17.6986 72.1718 18.8699V17.5309H66.7842V39.1782H72.1718V32.9966C73.4856 34.1693 75.2363 34.8388 77.4254 34.8388C81.9046 34.8388 85.6757 31.2548 85.6757 25.9332C85.6757 20.6447 81.9046 17.0291 77.4254 17.0291ZM76.3179 30.2856C74.1288 30.2856 72.1762 28.5452 72.1762 25.9332C72.1762 23.3528 74.1288 21.5822 76.3179 21.5822C78.6757 21.5822 80.3933 23.3556 80.3933 25.9332C80.389 28.5452 78.6714 30.2856 76.3179 30.2856Z" fill="#717680"/>
<path d="M120.833 18.8699C119.519 17.6986 117.769 17.0291 115.579 17.0291C111.1 17.0291 107.329 20.6447 107.329 25.9332C107.329 31.2562 111.1 34.8388 115.579 34.8388C117.769 34.8388 119.519 34.1693 120.833 32.9966V34.3356H126.221V17.5309H120.833V18.8699ZM116.691 30.2856C114.333 30.2856 112.616 28.5452 112.616 25.9332C112.616 23.3528 114.333 21.5822 116.691 21.5822C118.879 21.5822 120.833 23.3556 120.833 25.9332C120.833 28.5452 118.879 30.2856 116.691 30.2856Z" fill="#717680"/>
<path d="M76.0584 10.3521C76.315 10.3526 76.5622 10.256 76.7497 10.0818C76.9372 9.90765 77.051 9.66904 77.0679 9.41452L77.5754 1.74901C77.5881 1.67221 77.5947 1.59457 77.5956 1.51677C77.5956 1.50386 77.5956 1.49239 77.5956 1.4795V1.45082C77.5786 1.06034 77.4105 0.691485 77.1265 0.421184C76.8425 0.150883 76.4645 0 76.0714 0C75.6782 0 75.3002 0.150883 75.0162 0.421184C74.7322 0.691485 74.5641 1.06034 74.547 1.45082H74.5283L75.0489 9.41452C75.0658 9.66904 75.1795 9.90765 75.367 10.0818C75.5546 10.256 75.8018 10.3526 76.0584 10.3521Z" fill="#717680"/>
<path d="M81.3834 11.5406L87.1954 6.47713C87.2588 6.43445 87.3197 6.3865 87.3754 6.33377L87.3997 6.30653L87.4214 6.2879C87.6919 6.0008 87.8388 5.62053 87.8328 5.22741C87.8258 4.83429 87.6658 4.45909 87.3867 4.18107C87.1066 3.90305 86.7292 3.74398 86.3337 3.73745C85.9382 3.73093 85.5557 3.87746 85.2669 4.1461L85.254 4.13319L79.96 10.1242C79.7924 10.3159 79.7041 10.5635 79.713 10.8174C79.7219 11.0711 79.8272 11.3122 80.0077 11.4918C80.1882 11.6715 80.4306 11.7764 80.6858 11.7855C80.9411 11.7945 81.1904 11.707 81.3834 11.5406Z" fill="#717680"/>
<path d="M72.039 11.4946C72.2199 11.3144 72.3252 11.0726 72.3336 10.8181C72.3418 10.5636 72.2525 10.3155 72.0837 10.1241L66.7941 4.123L66.7796 4.1359C66.4909 3.86727 66.1083 3.72074 65.7129 3.72726C65.3174 3.73379 64.94 3.89286 64.6603 4.17088C64.3806 4.44889 64.2206 4.82409 64.2141 5.21722C64.2075 5.61034 64.3549 5.99061 64.6251 6.2777L64.6468 6.29634C64.6554 6.30495 64.6626 6.31498 64.6727 6.32358C64.7284 6.37596 64.7883 6.42389 64.8516 6.46694L70.6632 11.5304C70.8545 11.6986 71.1029 11.7883 71.3582 11.7817C71.6135 11.775 71.8568 11.6724 72.039 11.4946Z" fill="#717680"/>
</g>
<defs>
<clipPath id="svg-1201247981_5450_clip0_23_5423">
<rect width="149.565" height="40" fill="white" transform="translate(0.217285)"/>
</clipPath>
</defs>
</svg>